<svg width="1920" height="396" viewBox="0 0 1920 396" fill="none" xmlns="http://www.w3.org/2000/svg">
<g clip-path="url(#clip0_498_15895)">
<mask id="mask0_498_15895" style="mask-type:alpha" maskUnits="userSpaceOnUse" x="-320" y="0" width="2560" height="396">
<path d="M2240 0H-320V396H2240V0Z" fill="url(#paint0_radial_498_15895)"/>
</mask>
<g mask="url(#mask0_498_15895)">
<path d="M754 -204.185V602.456" stroke="#D3E5F9"/>
<path d="M1586 -204.185V602.456" stroke="#D3E5F9"/>
<path d="M546 -204.185V602.456" stroke="#D3E5F9"/>
<path d="M1378 -204.185V602.456" stroke="#D3E5F9"/>
<path d="M442 -204.185V602.456" stroke="#D3E5F9"/>
<path d="M1170 -204.185V602.456" stroke="#D3E5F9"/>
<path d="M338 -204.185V602.456" stroke="#D3E5F9"/>
<path d="M962 -204.185V602.456" stroke="#D3E5F9"/>
<path d="M650 -204.185V602.456" stroke="#D3E5F9"/>
<path d="M1482 -204.185V602.456" stroke="#D3E5F9"/>
<path d="M1274 -204.185V602.456" stroke="#D3E5F9"/>
<path d="M1066 -204.185V602.456" stroke="#D3E5F9"/>
<path d="M858 -204.185V602.456" stroke="#D3E5F9"/>
<path d="M234 -204.185V602.456" stroke="#D3E5F9"/>
<path d="M1690 -204.185V602.456" stroke="#D3E5F9"/>
<path d="M1794 -204.185V602.456" stroke="#D3E5F9"/>
<path d="M1898 -204.185V602.456" stroke="#D3E5F9"/>
<path d="M130 -204.185V602.456" stroke="#D3E5F9"/>
<path d="M26 -204.185V602.456" stroke="#D3E5F9"/>
<path d="M1914.01 197.996H9.99805" stroke="#D3E5F9"/>
<path d="M6.99844 197.996H4" stroke="#D3E5F9"/>
<path d="M1914.01 301.855H9.99805" stroke="#D3E5F9"/>
<path d="M6.99844 301.855H4" stroke="#D3E5F9"/>
<path d="M1914.01 94.1445H9.99805" stroke="#D3E5F9"/>
<path d="M6.99844 94.1445H4" stroke="#D3E5F9"/>
<path d="M1481.9 96.4993C1482.94 96.4993 1483.79 95.6517 1483.79 94.6061C1483.79 93.5605 1482.94 92.7129 1481.9 92.7129C1480.85 92.7129 1480 93.5605 1480 94.6061C1480 95.6517 1480.85 96.4993 1481.9 96.4993Z" fill="#8DAAFF"/>
<path d="M1481.9 200.352C1482.94 200.352 1483.79 199.504 1483.79 198.459C1483.79 197.413 1482.94 196.565 1481.9 196.565C1480.85 196.565 1480 197.413 1480 198.459C1480 199.504 1480.85 200.352 1481.9 200.352Z" fill="#8DAAFF"/>
<path d="M1481.9 304.212C1482.94 304.212 1483.79 303.364 1483.79 302.318C1483.79 301.273 1482.94 300.425 1481.9 300.425C1480.85 300.425 1480 301.273 1480 302.318C1480 303.364 1480.85 304.212 1481.9 304.212Z" fill="#8DAAFF"/>
<path d="M1377.9 96.4993C1378.94 96.4993 1379.79 95.6517 1379.79 94.6061C1379.79 93.5605 1378.94 92.7129 1377.9 92.7129C1376.85 92.7129 1376 93.5605 1376 94.6061C1376 95.6517 1376.85 96.4993 1377.9 96.4993Z" fill="#8DAAFF"/>
<path d="M1377.9 200.352C1378.94 200.352 1379.79 199.504 1379.79 198.459C1379.79 197.413 1378.94 196.565 1377.9 196.565C1376.85 196.565 1376 197.413 1376 198.459C1376 199.504 1376.85 200.352 1377.9 200.352Z" fill="#8DAAFF"/>
<path d="M1377.9 304.212C1378.94 304.212 1379.79 303.364 1379.79 302.318C1379.79 301.273 1378.94 300.425 1377.9 300.425C1376.85 300.425 1376 301.273 1376 302.318C1376 303.364 1376.85 304.212 1377.9 304.212Z" fill="#8DAAFF"/>
<path d="M1273.9 96.4993C1274.94 96.4993 1275.79 95.6517 1275.79 94.6061C1275.79 93.5605 1274.94 92.7129 1273.9 92.7129C1272.85 92.7129 1272 93.5605 1272 94.6061C1272 95.6517 1272.85 96.4993 1273.9 96.4993Z" fill="#8DAAFF"/>
<path d="M1273.9 200.352C1274.94 200.352 1275.79 199.504 1275.79 198.459C1275.79 197.413 1274.94 196.565 1273.9 196.565C1272.85 196.565 1272 197.413 1272 198.459C1272 199.504 1272.85 200.352 1273.9 200.352Z" fill="#8DAAFF"/>
<path d="M1273.9 304.212C1274.94 304.212 1275.79 303.364 1275.79 302.318C1275.79 301.273 1274.94 300.425 1273.9 300.425C1272.85 300.425 1272 301.273 1272 302.318C1272 303.364 1272.85 304.212 1273.9 304.212Z" fill="#8DAAFF"/>
<path d="M1169.9 96.4993C1170.94 96.4993 1171.79 95.6517 1171.79 94.6061C1171.79 93.5605 1170.94 92.7129 1169.9 92.7129C1168.85 92.7129 1168 93.5605 1168 94.6061C1168 95.6517 1168.85 96.4993 1169.9 96.4993Z" fill="#8DAAFF"/>
<path d="M1169.9 200.352C1170.94 200.352 1171.79 199.504 1171.79 198.459C1171.79 197.413 1170.94 196.565 1169.9 196.565C1168.85 196.565 1168 197.413 1168 198.459C1168 199.504 1168.85 200.352 1169.9 200.352Z" fill="#8DAAFF"/>
<path d="M1169.9 304.212C1170.94 304.212 1171.79 303.364 1171.79 302.318C1171.79 301.273 1170.94 300.425 1169.9 300.425C1168.85 300.425 1168 301.273 1168 302.318C1168 303.364 1168.85 304.212 1169.9 304.212Z" fill="#8DAAFF"/>
<path d="M1065.9 96.4993C1066.94 96.4993 1067.79 95.6517 1067.79 94.6061C1067.79 93.5605 1066.94 92.7129 1065.9 92.7129C1064.85 92.7129 1064 93.5605 1064 94.6061C1064 95.6517 1064.85 96.4993 1065.9 96.4993Z" fill="#8DAAFF"/>
<path d="M1065.9 200.352C1066.94 200.352 1067.79 199.504 1067.79 198.459C1067.79 197.413 1066.94 196.565 1065.9 196.565C1064.85 196.565 1064 197.413 1064 198.459C1064 199.504 1064.85 200.352 1065.9 200.352Z" fill="#8DAAFF"/>
<path d="M1065.9 304.212C1066.94 304.212 1067.79 303.364 1067.79 302.318C1067.79 301.273 1066.94 300.425 1065.9 300.425C1064.85 300.425 1064 301.273 1064 302.318C1064 303.364 1064.85 304.212 1065.9 304.212Z" fill="#8DAAFF"/>
<path d="M961.896 96.4993C962.943 96.4993 963.792 95.6517 963.792 94.6061C963.792 93.5605 962.943 92.7129 961.896 92.7129C960.849 92.7129 960 93.5605 960 94.6061C960 95.6517 960.849 96.4993 961.896 96.4993Z" fill="#8DAAFF"/>
<path d="M961.896 200.352C962.943 200.352 963.792 199.504 963.792 198.459C963.792 197.413 962.943 196.565 961.896 196.565C960.849 196.565 960 197.413 960 198.459C960 199.504 960.849 200.352 961.896 200.352Z" fill="#8DAAFF"/>
<path d="M961.896 304.212C962.943 304.212 963.792 303.364 963.792 302.318C963.792 301.273 962.943 300.425 961.896 300.425C960.849 300.425 960 301.273 960 302.318C960 303.364 960.849 304.212 961.896 304.212Z" fill="#8DAAFF"/>
<path d="M857.896 96.4993C858.943 96.4993 859.792 95.6517 859.792 94.6061C859.792 93.5605 858.943 92.7129 857.896 92.7129C856.849 92.7129 856 93.5605 856 94.6061C856 95.6517 856.849 96.4993 857.896 96.4993Z" fill="#8DAAFF"/>
<path d="M857.896 200.352C858.943 200.352 859.792 199.504 859.792 198.459C859.792 197.413 858.943 196.565 857.896 196.565C856.849 196.565 856 197.413 856 198.459C856 199.504 856.849 200.352 857.896 200.352Z" fill="#8DAAFF"/>
<path d="M857.896 304.212C858.943 304.212 859.792 303.364 859.792 302.318C859.792 301.273 858.943 300.425 857.896 300.425C856.849 300.425 856 301.273 856 302.318C856 303.364 856.849 304.212 857.896 304.212Z" fill="#8DAAFF"/>
<path d="M753.896 96.4993C754.943 96.4993 755.792 95.6517 755.792 94.6061C755.792 93.5605 754.943 92.7129 753.896 92.7129C752.849 92.7129 752 93.5605 752 94.6061C752 95.6517 752.849 96.4993 753.896 96.4993Z" fill="#8DAAFF"/>
<path d="M753.896 200.352C754.943 200.352 755.792 199.504 755.792 198.459C755.792 197.413 754.943 196.565 753.896 196.565C752.849 196.565 752 197.413 752 198.459C752 199.504 752.849 200.352 753.896 200.352Z" fill="#8DAAFF"/>
<path d="M753.896 304.212C754.943 304.212 755.792 303.364 755.792 302.318C755.792 301.273 754.943 300.425 753.896 300.425C752.849 300.425 752 301.273 752 302.318C752 303.364 752.849 304.212 753.896 304.212Z" fill="#8DAAFF"/>
<path d="M649.896 96.4993C650.943 96.4993 651.792 95.6517 651.792 94.6061C651.792 93.5605 650.943 92.7129 649.896 92.7129C648.849 92.7129 648 93.5605 648 94.6061C648 95.6517 648.849 96.4993 649.896 96.4993Z" fill="#8DAAFF"/>
<path d="M649.896 200.352C650.943 200.352 651.792 199.504 651.792 198.459C651.792 197.413 650.943 196.565 649.896 196.565C648.849 196.565 648 197.413 648 198.459C648 199.504 648.849 200.352 649.896 200.352Z" fill="#8DAAFF"/>
<path d="M649.896 304.212C650.943 304.212 651.792 303.364 651.792 302.318C651.792 301.273 650.943 300.425 649.896 300.425C648.849 300.425 648 301.273 648 302.318C648 303.364 648.849 304.212 649.896 304.212Z" fill="#8DAAFF"/>
<path d="M545.896 96.4993C546.943 96.4993 547.792 95.6517 547.792 94.6061C547.792 93.5605 546.943 92.7129 545.896 92.7129C544.849 92.7129 544 93.5605 544 94.6061C544 95.6517 544.849 96.4993 545.896 96.4993Z" fill="#8DAAFF"/>
<path d="M545.896 200.352C546.943 200.352 547.792 199.504 547.792 198.459C547.792 197.413 546.943 196.565 545.896 196.565C544.849 196.565 544 197.413 544 198.459C544 199.504 544.849 200.352 545.896 200.352Z" fill="#8DAAFF"/>
<path d="M545.896 304.212C546.943 304.212 547.792 303.364 547.792 302.318C547.792 301.273 546.943 300.425 545.896 300.425C544.849 300.425 544 301.273 544 302.318C544 303.364 544.849 304.212 545.896 304.212Z" fill="#8DAAFF"/>
<path d="M441.896 96.4993C442.943 96.4993 443.792 95.6517 443.792 94.6061C443.792 93.5605 442.943 92.7129 441.896 92.7129C440.849 92.7129 440 93.5605 440 94.6061C440 95.6517 440.849 96.4993 441.896 96.4993Z" fill="#8DAAFF"/>
<path d="M441.896 200.352C442.943 200.352 443.792 199.504 443.792 198.459C443.792 197.413 442.943 196.565 441.896 196.565C440.849 196.565 440 197.413 440 198.459C440 199.504 440.849 200.352 441.896 200.352Z" fill="#8DAAFF"/>
<path d="M441.896 304.212C442.943 304.212 443.792 303.364 443.792 302.318C443.792 301.273 442.943 300.425 441.896 300.425C440.849 300.425 440 301.273 440 302.318C440 303.364 440.849 304.212 441.896 304.212Z" fill="#8DAAFF"/>
<path d="M337.896 96.4993C338.943 96.4993 339.792 95.6517 339.792 94.6061C339.792 93.5605 338.943 92.7129 337.896 92.7129C336.849 92.7129 336 93.5605 336 94.6061C336 95.6517 336.849 96.4993 337.896 96.4993Z" fill="#8DAAFF"/>
<path d="M337.896 200.352C338.943 200.352 339.792 199.504 339.792 198.459C339.792 197.413 338.943 196.565 337.896 196.565C336.849 196.565 336 197.413 336 198.459C336 199.504 336.849 200.352 337.896 200.352Z" fill="#8DAAFF"/>
<path d="M337.896 304.212C338.943 304.212 339.792 303.364 339.792 302.318C339.792 301.273 338.943 300.425 337.896 300.425C336.849 300.425 336 301.273 336 302.318C336 303.364 336.849 304.212 337.896 304.212Z" fill="#8DAAFF"/>
<path d="M233.896 96.4993C234.943 96.4993 235.792 95.6517 235.792 94.6061C235.792 93.5605 234.943 92.7129 233.896 92.7129C232.849 92.7129 232 93.5605 232 94.6061C232 95.6517 232.849 96.4993 233.896 96.4993Z" fill="#8DAAFF"/>
<path d="M233.896 200.352C234.943 200.352 235.792 199.504 235.792 198.459C235.792 197.413 234.943 196.565 233.896 196.565C232.849 196.565 232 197.413 232 198.459C232 199.504 232.849 200.352 233.896 200.352Z" fill="#8DAAFF"/>
<path d="M233.896 304.212C234.943 304.212 235.792 303.364 235.792 302.318C235.792 301.273 234.943 300.425 233.896 300.425C232.849 300.425 232 301.273 232 302.318C232 303.364 232.849 304.212 233.896 304.212Z" fill="#8DAAFF"/>
<path d="M129.896 96.4993C130.943 96.4993 131.792 95.6517 131.792 94.6061C131.792 93.5605 130.943 92.7129 129.896 92.7129C128.849 92.7129 128 93.5605 128 94.6061C128 95.6517 128.849 96.4993 129.896 96.4993Z" fill="#8DAAFF"/>
<path d="M129.896 200.352C130.943 200.352 131.792 199.504 131.792 198.459C131.792 197.413 130.943 196.565 129.896 196.565C128.849 196.565 128 197.413 128 198.459C128 199.504 128.849 200.352 129.896 200.352Z" fill="#8DAAFF"/>
<path d="M129.896 304.212C130.943 304.212 131.792 303.364 131.792 302.318C131.792 301.273 130.943 300.425 129.896 300.425C128.849 300.425 128 301.273 128 302.318C128 303.364 128.849 304.212 129.896 304.212Z" fill="#8DAAFF"/>
<path d="M25.8961 96.4993C26.9434 96.4993 27.7923 95.6517 27.7923 94.6061C27.7923 93.5605 26.9434 92.7129 25.8961 92.7129C24.8489 92.7129 24 93.5605 24 94.6061C24 95.6517 24.8489 96.4993 25.8961 96.4993Z" fill="#8DAAFF"/>
<path d="M25.8961 200.352C26.9434 200.352 27.7923 199.504 27.7923 198.459C27.7923 197.413 26.9434 196.565 25.8961 196.565C24.8489 196.565 24 197.413 24 198.459C24 199.504 24.8489 200.352 25.8961 200.352Z" fill="#8DAAFF"/>
<path d="M25.8961 304.212C26.9434 304.212 27.7923 303.364 27.7923 302.318C27.7923 301.273 26.9434 300.425 25.8961 300.425C24.8489 300.425 24 301.273 24 302.318C24 303.364 24.8489 304.212 25.8961 304.212Z" fill="#8DAAFF"/>
<path d="M1585.9 96.4993C1586.94 96.4993 1587.79 95.6517 1587.79 94.6061C1587.79 93.5605 1586.94 92.7129 1585.9 92.7129C1584.85 92.7129 1584 93.5605 1584 94.6061C1584 95.6517 1584.85 96.4993 1585.9 96.4993Z" fill="#8DAAFF"/>
<path d="M1585.9 200.352C1586.94 200.352 1587.79 199.504 1587.79 198.459C1587.79 197.413 1586.94 196.565 1585.9 196.565C1584.85 196.565 1584 197.413 1584 198.459C1584 199.504 1584.85 200.352 1585.9 200.352Z" fill="#8DAAFF"/>
<path d="M1585.9 304.212C1586.94 304.212 1587.79 303.364 1587.79 302.318C1587.79 301.273 1586.94 300.425 1585.9 300.425C1584.85 300.425 1584 301.273 1584 302.318C1584 303.364 1584.85 304.212 1585.9 304.212Z" fill="#8DAAFF"/>
<path d="M1689.9 96.4993C1690.94 96.4993 1691.79 95.6517 1691.79 94.6061C1691.79 93.5605 1690.94 92.7129 1689.9 92.7129C1688.85 92.7129 1688 93.5605 1688 94.6061C1688 95.6517 1688.85 96.4993 1689.9 96.4993Z" fill="#8DAAFF"/>
<path d="M1689.9 200.352C1690.94 200.352 1691.79 199.504 1691.79 198.459C1691.79 197.413 1690.94 196.565 1689.9 196.565C1688.85 196.565 1688 197.413 1688 198.459C1688 199.504 1688.85 200.352 1689.9 200.352Z" fill="#8DAAFF"/>
<path d="M1689.9 304.212C1690.94 304.212 1691.79 303.364 1691.79 302.318C1691.79 301.273 1690.94 300.425 1689.9 300.425C1688.85 300.425 1688 301.273 1688 302.318C1688 303.364 1688.85 304.212 1689.9 304.212Z" fill="#8DAAFF"/>
<path d="M1793.9 96.4993C1794.94 96.4993 1795.79 95.6517 1795.79 94.6061C1795.79 93.5605 1794.94 92.7129 1793.9 92.7129C1792.85 92.7129 1792 93.5605 1792 94.6061C1792 95.6517 1792.85 96.4993 1793.9 96.4993Z" fill="#8DAAFF"/>
<path d="M1793.9 200.352C1794.94 200.352 1795.79 199.504 1795.79 198.459C1795.79 197.413 1794.94 196.565 1793.9 196.565C1792.85 196.565 1792 197.413 1792 198.459C1792 199.504 1792.85 200.352 1793.9 200.352Z" fill="#8DAAFF"/>
<path d="M1793.9 304.212C1794.94 304.212 1795.79 303.364 1795.79 302.318C1795.79 301.273 1794.94 300.425 1793.9 300.425C1792.85 300.425 1792 301.273 1792 302.318C1792 303.364 1792.85 304.212 1793.9 304.212Z" fill="#8DAAFF"/>
<path d="M1897.9 96.4993C1898.94 96.4993 1899.79 95.6517 1899.79 94.6061C1899.79 93.5605 1898.94 92.7129 1897.9 92.7129C1896.85 92.7129 1896 93.5605 1896 94.6061C1896 95.6517 1896.85 96.4993 1897.9 96.4993Z" fill="#8DAAFF"/>
<path d="M1897.9 200.352C1898.94 200.352 1899.79 199.504 1899.79 198.459C1899.79 197.413 1898.94 196.565 1897.9 196.565C1896.85 196.565 1896 197.413 1896 198.459C1896 199.504 1896.85 200.352 1897.9 200.352Z" fill="#8DAAFF"/>
<path d="M1897.9 304.212C1898.94 304.212 1899.79 303.364 1899.79 302.318C1899.79 301.273 1898.94 300.425 1897.9 300.425C1896.85 300.425 1896 301.273 1896 302.318C1896 303.364 1896.85 304.212 1897.9 304.212Z" fill="#8DAAFF"/>
</g>
<path d="M337.5 94H89" stroke="url(#paint1_linear_498_15895)" stroke-width="4" stroke-linecap="round" stroke-linejoin="round"/>
<path d="M338 405.5C338 405.5 338.002 168.851 338.001 -14" stroke="url(#paint2_linear_498_15895)" stroke-width="4" stroke-linecap="round" stroke-linejoin="round"/>
<path d="M1588 409.5C1588 409.5 1588 172.851 1588 -10" stroke="url(#paint3_linear_498_15895)" stroke-width="4" stroke-linecap="round" stroke-linejoin="round"/>
<path d="M442 303H546.5V93.5" stroke="url(#paint4_linear_498_15895)" stroke-width="4" stroke-linecap="round" stroke-linejoin="round"/>
<path d="M1591 302H1794" stroke="url(#paint5_radial_498_15895)" stroke-width="4" stroke-linecap="round" stroke-linejoin="round"/>
<path d="M1586.5 93.5L1378 93.5" stroke="url(#paint6_linear_498_15895)" stroke-width="4" stroke-linecap="round" stroke-linejoin="round"/>
<path d="M1441 291H1274C1273.45 291 1273 291.448 1273 292V310C1273 310.552 1273.45 311 1274 311H1441C1441.55 311 1442 310.552 1442 310V292C1442 291.448 1441.55 291 1441 291Z" fill="url(#paint7_linear_498_15895)" fill-opacity="0.6"/>
<path d="M1284.35 302.5C1284.35 307.938 1279.94 312.347 1274.5 312.347C1269.06 312.347 1264.65 307.938 1264.65 302.5C1264.65 297.061 1269.06 292.652 1274.5 292.652C1279.94 292.652 1284.35 297.061 1284.35 302.5Z" fill="white" stroke="#8DAAFF"/>
<path d="M1293 304.35V300.65C1293 300.139 1292.59 299.725 1292.08 299.725H1288.83C1288.41 299.725 1288.04 299.436 1287.94 299.027C1287.61 297.755 1287.11 296.555 1286.46 295.454C1286.24 295.088 1286.3 294.626 1286.6 294.328L1288.89 292.036C1289.25 291.675 1289.25 291.09 1288.89 290.727L1286.27 288.112C1285.91 287.751 1285.33 287.751 1284.96 288.112L1282.67 290.401C1282.37 290.702 1281.91 290.755 1281.55 290.54C1280.44 289.888 1279.24 289.384 1277.97 289.055C1277.56 288.946 1277.28 288.581 1277.28 288.158V284.925C1277.28 284.414 1276.86 284 1276.35 284H1272.65C1272.14 284 1271.73 284.414 1271.73 284.925V288.158C1271.73 288.581 1271.44 288.946 1271.03 289.053C1269.75 289.381 1268.55 289.885 1267.45 290.537C1267.08 290.753 1266.62 290.699 1266.32 290.399L1264.03 288.109C1263.67 287.749 1263.09 287.749 1262.72 288.109L1260.11 290.727C1259.75 291.088 1259.75 291.673 1260.11 292.036L1262.4 294.328C1262.7 294.626 1262.75 295.091 1262.54 295.454C1261.89 296.557 1261.39 297.757 1261.06 299.027C1260.96 299.436 1260.59 299.725 1260.17 299.725H1256.93C1256.41 299.725 1256 300.139 1256 300.65V304.35C1256 304.861 1256.41 305.275 1256.93 305.275H1260.17C1260.59 305.275 1260.96 305.562 1261.07 305.971C1261.4 307.238 1261.9 308.436 1262.55 309.537C1262.76 309.902 1262.71 310.365 1262.41 310.665L1260.11 312.966C1259.75 313.327 1259.75 313.912 1260.11 314.275L1262.72 316.891C1263.09 317.251 1263.67 317.251 1264.03 316.891L1266.34 314.587C1266.64 314.289 1267.1 314.234 1267.46 314.449C1268.56 315.098 1269.76 315.6 1271.03 315.926C1271.44 316.033 1271.73 316.398 1271.73 316.821V320.075C1271.73 320.586 1272.14 321 1272.65 321H1276.35C1276.86 321 1277.28 320.586 1277.28 320.075V316.819C1277.28 316.396 1277.56 316.03 1277.97 315.924C1279.24 315.598 1280.44 315.096 1281.54 314.446C1281.9 314.231 1282.36 314.287 1282.66 314.585L1284.97 316.888C1285.33 317.249 1285.91 317.249 1286.28 316.888L1288.89 314.273C1289.25 313.912 1289.25 313.327 1288.89 312.964L1286.59 310.663C1286.29 310.363 1286.24 309.9 1286.45 309.535C1287.1 308.434 1287.6 307.236 1287.93 305.969C1288.04 305.559 1288.41 305.273 1288.83 305.273H1292.08C1292.59 305.275 1293 304.861 1293 304.35ZM1275.4 310.765C1270.11 311.327 1265.66 306.882 1266.22 301.584C1266.63 297.725 1269.74 294.621 1273.6 294.212C1278.89 293.65 1283.34 298.095 1282.78 303.393C1282.37 307.252 1279.26 310.356 1275.4 310.765Z" fill="#DEEFFF" stroke="#8DAAFF"/>
<path d="M1277.61 302.208C1277.83 301.876 1277.59 301.437 1277.19 301.437H1276.13C1275.84 301.437 1275.62 301.191 1275.64 300.901L1275.96 296.314C1276 295.799 1275.32 295.573 1275.04 296.007L1270.94 302.34C1270.72 302.673 1270.96 303.112 1271.36 303.112H1272.42C1272.71 303.112 1272.94 303.358 1272.91 303.647L1272.59 308.234C1272.55 308.749 1273.23 308.975 1273.51 308.541L1277.61 302.208Z" fill="#0064FF"/>
<g filter="url(#filter0_b_498_15895)">
<path d="M439.49 257.842C439.49 255.915 438.383 254.16 436.644 253.33L398.413 235.083V354.897H439.49V257.842Z" fill="#DEEFFF"/>
<path d="M439.49 257.842C439.49 255.915 438.383 254.16 436.644 253.33L398.413 235.083V354.897H439.49V257.842Z" stroke="#8DAAFF"/>
</g>
<g filter="url(#filter1_b_498_15895)">
<path d="M329 220.047C329 217.996 330.252 216.154 332.159 215.399L391.991 191.709C395.273 190.409 398.832 192.828 398.832 196.357V354.897H330C329.448 354.897 329 354.449 329 353.897V220.047Z" fill="white"/>
<path d="M329 220.047C329 217.996 330.252 216.154 332.159 215.399L391.991 191.709C395.273 190.409 398.832 192.828 398.832 196.357V354.897H330C329.448 354.897 329 354.449 329 353.897V220.047Z" stroke="#8DAAFF"/>
</g>
<path fill-rule="evenodd" clip-rule="evenodd" d="M338.168 236.004C338.168 235.452 338.616 235.004 339.168 235.004H389.554C390.107 235.004 390.554 235.452 390.554 236.004V242.908C390.554 243.46 390.107 243.908 389.554 243.908H339.168C338.616 243.908 338.168 243.46 338.168 242.908V236.004Z" fill="#DEEFFF"/>
<path fill-rule="evenodd" clip-rule="evenodd" d="M338.168 280.524C338.168 279.972 338.616 279.524 339.168 279.524H389.554C390.107 279.524 390.554 279.972 390.554 280.524V287.428C390.554 287.98 390.107 288.428 389.554 288.428H339.168C338.616 288.428 338.168 287.98 338.168 287.428V280.524Z" fill="#DEEFFF"/>
<path fill-rule="evenodd" clip-rule="evenodd" d="M338.168 258.264C338.168 257.712 338.616 257.264 339.168 257.264H389.554C390.107 257.264 390.554 257.712 390.554 258.264V265.168C390.554 265.72 390.107 266.168 389.554 266.168H339.168C338.616 266.168 338.168 265.72 338.168 265.168V258.264Z" fill="#DEEFFF"/>
<path fill-rule="evenodd" clip-rule="evenodd" d="M338.168 325.044C338.168 324.492 338.616 324.044 339.168 324.044H389.554C390.107 324.044 390.554 324.492 390.554 325.044V331.948C390.554 332.5 390.107 332.948 389.554 332.948H339.168C338.616 332.948 338.168 332.5 338.168 331.948V325.044Z" fill="#DEEFFF"/>
<path fill-rule="evenodd" clip-rule="evenodd" d="M338.168 302.784C338.168 302.232 338.616 301.784 339.168 301.784H389.554C390.107 301.784 390.554 302.232 390.554 302.784V309.688C390.554 310.24 390.107 310.688 389.554 310.688H339.168C338.616 310.688 338.168 310.24 338.168 309.688V302.784Z" fill="#DEEFFF"/>
<path d="M464.211 379L410.423 348.037V331.127L464.211 362.09V379Z" fill="white" stroke="#8DAAFF" stroke-miterlimit="10" stroke-linecap="round" stroke-linejoin="round"/>
<path d="M424.207 350.59C425.808 349.521 425.591 346.411 423.724 343.643C421.856 340.874 419.045 339.497 417.445 340.566C415.844 341.634 416.061 344.745 417.928 347.513C419.795 350.282 422.607 351.659 424.207 350.59Z" fill="#8DAAFF" stroke="#8DAAFF" stroke-miterlimit="10" stroke-linecap="round" stroke-linejoin="round"/>
<path d="M437.464 352.71L458.242 364.686" stroke="#8DAAFF" stroke-width="2" stroke-miterlimit="10" stroke-linecap="round" stroke-linejoin="round"/>
<path d="M437.465 357.582L458.243 369.558" stroke="#8DAAFF" stroke-width="2" stroke-miterlimit="10" stroke-linecap="round" stroke-linejoin="round"/>
<path d="M410.423 331.13L464.211 300.102L517.999 331.13L464.211 362.125L410.423 331.13Z" fill="#8DAAFF" stroke="#8DAAFF" stroke-miterlimit="10" stroke-linecap="round" stroke-linejoin="round"/>
<path d="M518 331.127L464.212 362.122V379L518 348.004V331.127Z" fill="#DEEFFF" stroke="#8DAAFF" stroke-miterlimit="10" stroke-linecap="round" stroke-linejoin="round"/>
<path d="M464.211 356.447L410.423 325.484V308.574L464.211 339.537V356.447Z" fill="white" stroke="#8DAAFF" stroke-miterlimit="10" stroke-linecap="round" stroke-linejoin="round"/>
<path d="M424.208 328.035C425.809 326.966 425.592 323.855 423.725 321.087C421.857 318.319 419.046 316.941 417.446 318.01C415.845 319.079 416.062 322.189 417.929 324.958C419.796 327.726 422.608 329.104 424.208 328.035Z" fill="#8DAAFF" stroke="#8DAAFF" stroke-miterlimit="10" stroke-linecap="round" stroke-linejoin="round"/>
<path d="M437.465 330.158L458.243 342.134" stroke="#8DAAFF" stroke-width="2" stroke-miterlimit="10" stroke-linecap="round" stroke-linejoin="round"/>
<path d="M437.465 335.026L458.243 347.003" stroke="#8DAAFF" stroke-width="2" stroke-miterlimit="10" stroke-linecap="round" stroke-linejoin="round"/>
<path d="M410.423 308.575L464.211 277.547L517.999 308.575L464.211 339.571L410.423 308.575Z" fill="#8DAAFF" stroke="#8DAAFF" stroke-miterlimit="10" stroke-linecap="round" stroke-linejoin="round"/>
<path d="M517.999 308.574L464.211 339.57V356.447L517.999 325.451V308.574Z" fill="#DEEFFF" stroke="#8DAAFF" stroke-miterlimit="10" stroke-linecap="round" stroke-linejoin="round"/>
<path d="M464.211 333.891L410.423 302.928V285.986L464.211 316.981V333.891Z" fill="white" stroke="#8DAAFF" stroke-miterlimit="10" stroke-linecap="round" stroke-linejoin="round"/>
<path d="M424.208 305.475C425.809 304.406 425.592 301.296 423.725 298.527C421.857 295.759 419.046 294.381 417.446 295.45C415.845 296.519 416.062 299.63 417.929 302.398C419.796 305.166 422.608 306.544 424.208 305.475Z" fill="#8DAAFF" stroke="#8DAAFF" stroke-miterlimit="10" stroke-linecap="round" stroke-linejoin="round"/>
<path d="M437.464 307.599L458.242 319.575" stroke="#8DAAFF" stroke-width="2" stroke-miterlimit="10" stroke-linecap="round" stroke-linejoin="round"/>
<path d="M437.464 312.47L458.242 324.414" stroke="#8DAAFF" stroke-width="2" stroke-miterlimit="10" stroke-linecap="round" stroke-linejoin="round"/>
<path d="M410.423 285.985L464.211 254.99L517.999 285.985L464.211 317.013L410.423 285.985Z" fill="white" stroke="#8DAAFF" stroke-miterlimit="10" stroke-linecap="round" stroke-linejoin="round"/>
<path d="M517.999 285.986L464.211 317.014V333.891L517.999 302.895V285.986Z" fill="#DEEFFF" stroke="#8DAAFF" stroke-miterlimit="10" stroke-linecap="round" stroke-linejoin="round"/>
<path d="M464.719 293.342C463.043 293.342 461.367 292.891 459.891 291.957L453.172 287.741C440.663 279.882 433.197 266.874 433.197 252.932V244.342C433.197 240.546 436.283 237.34 440.364 236.92C446.304 236.297 452.077 234.337 457.021 231.24L460.223 229.249C462.96 227.537 466.51 227.537 469.248 229.249L472.45 231.24C477.394 234.321 483.15 236.297 489.106 236.92C493.154 237.356 496.24 240.546 496.24 244.358V252.947C496.24 266.874 488.775 279.882 476.249 287.756L469.53 291.973C468.07 292.876 466.394 293.342 464.719 293.342Z" fill="url(#paint8_linear_498_15895)" stroke="#BCFFD4" stroke-miterlimit="10" stroke-linecap="round" stroke-linejoin="round"/>
<path fill-rule="evenodd" clip-rule="evenodd" d="M453.199 259.356C452.597 259.955 452.597 260.927 453.199 261.526L461.153 269.458C461.442 269.746 461.834 269.908 462.242 269.908C462.65 269.908 463.042 269.746 463.331 269.458L477.329 255.495C477.93 254.895 477.93 253.923 477.328 253.324C476.727 252.724 475.752 252.724 475.151 253.324L462.242 266.202L455.376 259.356C454.775 258.756 453.8 258.756 453.199 259.356Z" fill="white"/>
<path d="M579 241H570C569.448 241 569 241.448 569 242V325C569 325.552 569.448 326 570 326H579C579.552 326 580 325.552 580 325V242C580 241.448 579.552 241 579 241Z" fill="url(#paint9_linear_498_15895)" fill-opacity="0.6"/>
<path d="M678 339H660C659.448 339 659 339.448 659 340V402C659 402.552 659.448 403 660 403H678C678.552 403 679 402.552 679 402V340C679 339.448 678.552 339 678 339Z" fill="url(#paint10_linear_498_15895)" fill-opacity="0.6"/>
<path d="M494 181H492C491.448 181 491 181.448 491 182V234C491 234.552 491.448 235 492 235H494C494.552 235 495 234.552 495 234V182C495 181.448 494.552 181 494 181Z" fill="url(#paint11_linear_498_15895)" fill-opacity="0.6"/>
<path d="M293 374H291C290.448 374 290 374.448 290 375V427C290 427.552 290.448 428 291 428H293C293.552 428 294 427.552 294 427V375C294 374.448 293.552 374 293 374Z" fill="url(#paint12_linear_498_15895)" fill-opacity="0.6"/>
<path d="M263 271H250C249.448 271 249 271.448 249 272V345C249 345.552 249.448 346 250 346H263C263.552 346 264 345.552 264 345V272C264 271.448 263.552 271 263 271Z" fill="url(#paint13_linear_498_15895)" fill-opacity="0.6"/>
<path d="M1549.2 265.835C1550.73 264.938 1551.67 263.296 1551.67 261.522V213.243C1551.67 211.469 1550.73 209.828 1549.2 208.93L1508.15 184.848C1506.59 183.931 1504.66 183.931 1503.09 184.848L1462.05 208.93C1460.52 209.828 1459.58 211.469 1459.58 213.243V261.522C1459.58 263.296 1460.52 264.938 1462.05 265.835L1503.09 289.896C1504.66 290.811 1506.59 290.811 1508.15 289.896L1549.2 265.835Z" fill="white" stroke="#8DAAFF" stroke-miterlimit="10" stroke-linecap="round" stroke-linejoin="round"/>
<path d="M1503.1 215.335C1504.44 214.542 1506.11 214.542 1507.45 215.335L1523.13 224.623C1524.44 225.391 1525.23 226.787 1525.23 228.293V247.056C1525.23 248.563 1524.44 249.959 1523.13 250.726L1507.45 260.015C1506.11 260.808 1504.44 260.808 1503.1 260.015L1487.41 250.726C1486.11 249.959 1485.31 248.563 1485.31 247.056V228.293C1485.31 226.787 1486.11 225.391 1487.41 224.623L1503.1 215.335Z" fill="url(#paint14_linear_498_15895)" stroke="#BCFFD4" stroke-miterlimit="10" stroke-linecap="round" stroke-linejoin="round"/>
<path fill-rule="evenodd" clip-rule="evenodd" d="M1495.06 235.989C1494.54 236.511 1494.54 237.358 1495.06 237.88L1502 244.79C1502.24 245.041 1502.59 245.182 1502.94 245.182C1503.29 245.181 1503.64 245.041 1503.89 244.79L1516.09 232.625C1516.61 232.103 1516.61 231.257 1516.08 230.735C1515.56 230.213 1514.71 230.213 1514.18 230.735L1502.94 241.953L1496.96 235.989C1496.43 235.466 1495.59 235.466 1495.06 235.989Z" fill="white"/>
<path d="M1597.53 360.835C1599.06 359.938 1600 358.296 1600 356.522V308.243C1600 306.469 1599.06 304.828 1597.53 303.93L1556.48 279.848C1554.92 278.931 1552.98 278.931 1551.42 279.848L1510.37 303.93C1508.84 304.828 1507.9 306.469 1507.9 308.243V356.522C1507.9 358.296 1508.84 359.938 1510.38 360.835L1551.42 384.896C1552.99 385.811 1554.92 385.811 1556.48 384.896L1597.53 360.835Z" fill="white" stroke="#8DAAFF" stroke-miterlimit="10" stroke-linecap="round" stroke-linejoin="round"/>
<path d="M1574 343.743V350.996C1574 353.879 1572.08 356.761 1568.19 358.976C1560.4 363.366 1547.73 363.366 1539.9 358.976C1537.94 357.888 1536.47 356.609 1535.49 355.253C1534.51 353.898 1534.02 352.466 1534 351.016V343.724C1534.02 346.606 1535.98 349.488 1539.9 351.703C1547.73 356.112 1560.4 356.112 1568.19 351.703C1572.08 349.488 1574 346.606 1574 343.743Z" fill="white" stroke="#8DAAFF" stroke-miterlimit="10" stroke-linecap="round" stroke-linejoin="round"/>
<path d="M1574 343.703V343.741C1574 346.605 1572.06 349.487 1568.19 351.663C1560.41 356.073 1547.73 356.073 1539.9 351.663C1536 349.468 1534.02 346.586 1534 343.684C1533.98 340.802 1535.92 337.919 1539.81 335.724C1547.59 331.315 1560.27 331.315 1568.1 335.724C1572.02 337.938 1573.98 340.821 1574 343.703Z" fill="#DEEFFF" stroke="#8DAAFF" stroke-miterlimit="10" stroke-linecap="round" stroke-linejoin="round"/>
<path d="M1574 329.005V336.259C1574 339.141 1572.08 342.024 1568.19 344.238C1560.4 348.647 1547.73 348.647 1539.9 344.238C1537.94 343.131 1536.47 341.871 1535.49 340.496C1534.51 339.141 1534.02 337.709 1534 336.259V328.967C1534.02 331.849 1535.98 334.732 1539.9 336.927C1547.73 341.336 1560.4 341.336 1568.19 336.927C1572.08 334.732 1574 331.868 1574 329.005Z" fill="white" stroke="#8DAAFF" stroke-miterlimit="10" stroke-linecap="round" stroke-linejoin="round"/>
<path d="M1574 328.965V329.004C1574 331.867 1572.06 334.749 1568.19 336.945C1560.41 341.354 1547.73 341.354 1539.9 336.945C1536 334.749 1534.02 331.867 1534 328.985C1533.98 326.102 1535.92 323.22 1539.81 321.005C1547.59 316.596 1560.27 316.596 1568.1 321.005C1572.02 323.182 1573.98 326.083 1574 328.965Z" fill="#DEEFFF" stroke="#8DAAFF" stroke-miterlimit="10" stroke-linecap="round" stroke-linejoin="round"/>
<path d="M1574 314.306V321.56C1574 324.442 1572.08 327.324 1568.19 329.52C1560.4 333.929 1547.73 333.929 1539.9 329.52C1537.94 328.412 1536.47 327.153 1535.49 325.797C1534.51 324.442 1534.02 322.991 1534 321.56V314.268C1534.02 317.15 1535.98 320.032 1539.9 322.228C1547.73 326.637 1560.4 326.637 1568.19 322.228C1572.08 320.032 1574 317.169 1574 314.306Z" fill="white" stroke="#8DAAFF" stroke-miterlimit="10" stroke-linecap="round" stroke-linejoin="round"/>
<path d="M1574 314.267V314.305C1574 317.169 1572.06 320.051 1568.19 322.227C1560.41 326.637 1547.73 326.637 1539.9 322.227C1536 320.032 1534.02 317.15 1534 314.267C1533.98 311.385 1535.92 308.502 1539.81 306.307C1547.59 301.898 1560.27 301.898 1568.1 306.307C1572.02 308.502 1573.98 311.366 1574 314.267Z" fill="#DEEFFF" stroke="#8DAAFF" stroke-miterlimit="10" stroke-linecap="round" stroke-linejoin="round"/>
<path d="M1494.96 361.002C1496.5 360.104 1497.44 358.463 1497.44 356.688V308.409C1497.44 306.636 1496.5 304.994 1494.97 304.097L1453.92 280.014C1452.36 279.098 1450.42 279.098 1448.86 280.014L1407.81 304.097C1406.28 304.994 1405.34 306.636 1405.34 308.409V356.688C1405.34 358.463 1406.28 360.104 1407.81 361.002L1448.86 385.062C1450.42 385.977 1452.36 385.977 1453.92 385.062L1494.96 361.002Z" fill="white" stroke="url(#paint15_linear_498_15895)" stroke-miterlimit="10" stroke-linecap="round" stroke-linejoin="round"/>
<path fill-rule="evenodd" clip-rule="evenodd" d="M1459.26 324.17V330.129H1462.71L1462.71 336.598V324.17C1462.71 318.058 1457.69 313.104 1451.5 313.104C1445.31 313.104 1440.29 318.058 1440.29 324.17L1440.29 330.129H1443.74V324.17C1443.74 319.939 1447.21 316.509 1451.5 316.509C1455.78 316.509 1459.26 319.939 1459.26 324.17Z" fill="#DEEFFF"/>
<path d="M1459.26 330.129H1458.76V330.629H1459.26V330.129ZM1462.71 330.129H1463.21V329.629H1462.71V330.129ZM1440.29 324.17L1440.79 324.17V324.17H1440.29ZM1440.29 330.129H1439.79L1439.79 330.629H1440.29V330.129ZM1443.74 330.129V330.629H1444.24V330.129H1443.74ZM1459.76 330.129V324.17H1458.76V330.129H1459.76ZM1459.26 330.629H1462.71V329.629H1459.26V330.629ZM1462.21 330.129L1462.21 336.598H1463.21L1463.21 330.129H1462.21ZM1463.21 336.598V324.17H1462.21V336.598H1463.21ZM1463.21 324.17C1463.21 317.776 1457.96 312.604 1451.5 312.604V313.604C1457.42 313.604 1462.21 318.34 1462.21 324.17H1463.21ZM1451.5 312.604C1445.04 312.604 1439.79 317.776 1439.79 324.17H1440.79C1440.79 318.34 1445.58 313.604 1451.5 313.604V312.604ZM1439.79 324.17L1439.79 330.129H1440.79L1440.79 324.17L1439.79 324.17ZM1440.29 330.629H1443.74V329.629H1440.29V330.629ZM1443.24 324.17V330.129H1444.24V324.17H1443.24ZM1451.5 316.009C1446.94 316.009 1443.24 319.657 1443.24 324.17H1444.24C1444.24 320.221 1447.48 317.009 1451.5 317.009V316.009ZM1459.76 324.17C1459.76 319.657 1456.05 316.009 1451.5 316.009V317.009C1455.51 317.009 1458.76 320.221 1458.76 324.17H1459.76Z" fill="#0064FF"/>
<rect x="1435.33" y="329.457" width="31.9841" height="24.0481" rx="2.24999" fill="#0064FF" stroke="#0064FF" stroke-width="0.499999"/>
<path fill-rule="evenodd" clip-rule="evenodd" d="M1452.92 343.189C1452.92 342.99 1453.04 342.812 1453.22 342.717C1454.42 342.071 1455.24 340.81 1455.24 339.361C1455.24 337.252 1453.51 335.543 1451.38 335.543C1449.24 335.543 1447.51 337.252 1447.51 339.361C1447.51 340.81 1448.33 342.071 1449.53 342.718C1449.71 342.812 1449.83 342.99 1449.83 343.189V345.874C1449.83 346.728 1450.52 347.421 1451.38 347.421C1452.23 347.421 1452.92 346.728 1452.92 345.874V343.189Z" fill="white"/>
<path d="M1449.53 342.718L1449.77 342.277L1449.53 342.718ZM1453.22 342.717L1452.98 342.277L1453.22 342.717ZM1454.74 339.361C1454.74 340.616 1454.03 341.713 1452.98 342.277L1453.45 343.158C1454.81 342.429 1455.74 341.004 1455.74 339.361H1454.74ZM1451.38 336.043C1453.24 336.043 1454.74 337.534 1454.74 339.361H1455.74C1455.74 336.97 1453.78 335.043 1451.38 335.043V336.043ZM1448.01 339.361C1448.01 337.534 1449.51 336.043 1451.38 336.043V335.043C1448.97 335.043 1447.01 336.97 1447.01 339.361H1448.01ZM1449.77 342.277C1448.72 341.713 1448.01 340.616 1448.01 339.361H1447.01C1447.01 341.004 1447.94 342.429 1449.3 343.158L1449.77 342.277ZM1450.33 345.874V343.189H1449.33V345.874H1450.33ZM1451.38 346.921C1450.8 346.921 1450.33 346.452 1450.33 345.874H1449.33C1449.33 347.005 1450.25 347.921 1451.38 347.921V346.921ZM1452.42 345.874C1452.42 346.452 1451.95 346.921 1451.38 346.921V347.921C1452.51 347.921 1453.42 347.005 1453.42 345.874H1452.42ZM1452.42 343.189V345.874H1453.42V343.189H1452.42ZM1449.3 343.158C1449.31 343.166 1449.32 343.177 1449.33 343.184C1449.33 343.19 1449.33 343.192 1449.33 343.189H1450.33C1450.33 342.782 1450.09 342.447 1449.77 342.277L1449.3 343.158ZM1452.98 342.277C1452.67 342.447 1452.42 342.782 1452.42 343.189H1453.42C1453.42 343.192 1453.42 343.19 1453.43 343.184C1453.43 343.176 1453.44 343.166 1453.45 343.158L1452.98 342.277Z" fill="#8DAAFF"/>
<path d="M1651.29 266.002C1652.82 265.104 1653.76 263.463 1653.76 261.688V213.409C1653.76 211.636 1652.82 209.994 1651.29 209.097L1610.25 185.014C1608.68 184.098 1606.75 184.098 1605.19 185.014L1564.14 209.097C1562.61 209.994 1561.67 211.636 1561.67 213.409V261.688C1561.67 263.463 1562.61 265.104 1564.14 266.002L1605.19 290.062C1606.75 290.977 1608.68 290.977 1610.24 290.062L1651.29 266.002Z" fill="white" stroke="#8DAAFF" stroke-miterlimit="10" stroke-linecap="round" stroke-linejoin="round"/>
<path fill-rule="evenodd" clip-rule="evenodd" d="M1614.42 226.629C1611.55 226.629 1609.22 228.969 1609.22 231.856V248.519C1609.22 253.053 1605.56 256.729 1601.05 256.729C1596.53 256.729 1592.88 253.053 1592.88 248.519V237.231H1595.84V248.519C1595.84 251.406 1598.17 253.746 1601.05 253.746C1603.92 253.746 1606.25 251.406 1606.25 248.519V231.856C1606.25 227.322 1609.91 223.646 1614.42 223.646C1618.93 223.646 1622.59 227.322 1622.59 231.856V237.769H1619.62V231.856C1619.62 228.969 1617.29 226.629 1614.42 226.629Z" fill="#226AFF"/>
<path d="M1587.14 225.138H1602.12V230.012C1602.12 234.148 1598.76 237.5 1594.63 237.5V237.5C1590.49 237.5 1587.14 234.148 1587.14 230.012V225.138Z" fill="#DEEFFF" stroke="#8DAAFF"/>
<rect x="1585" y="222.987" width="19.2552" height="2.15" rx="1.075" fill="#8DAAFF" stroke="#8DAAFF"/>
<path d="M1589.28 217.337C1589.28 216.599 1589.88 216 1590.62 216V216C1591.35 216 1591.95 216.599 1591.95 217.337V222.988H1589.28V217.337Z" fill="white" stroke="#8DAAFF"/>
<path d="M1597.3 217.337C1597.3 216.599 1597.9 216 1598.64 216V216C1599.38 216 1599.98 216.599 1599.98 217.337V222.988H1597.3V217.337Z" fill="white" stroke="#8DAAFF"/>
<path d="M1628.86 249.862L1613.88 249.862L1613.88 244.988C1613.88 240.852 1617.24 237.5 1621.37 237.5V237.5C1625.51 237.5 1628.86 240.852 1628.86 244.988L1628.86 249.862Z" fill="#DEEFFF" stroke="#8DAAFF"/>
<rect x="1631" y="252.013" width="19.2552" height="2.15" rx="1.075" transform="rotate(-180 1631 252.013)" fill="#8DAAFF" stroke="#8DAAFF"/>
<path d="M1626.72 257.663C1626.72 258.401 1626.12 259 1625.38 259V259C1624.64 259 1624.05 258.401 1624.05 257.663L1624.05 252.012L1626.72 252.012L1626.72 257.663Z" fill="white" stroke="#8DAAFF"/>
<path d="M1618.7 257.663C1618.7 258.401 1618.1 259 1617.36 259V259C1616.62 259 1616.02 258.401 1616.02 257.663L1616.02 252.012L1618.7 252.012L1618.7 257.663Z" fill="white" stroke="#8DAAFF"/>
</g>
<defs>
<filter id="filter0_b_498_15895" x="377.913" y="214.29" width="82.0771" height="161.106" filterUnits="userSpaceOnUse" color-interpolation-filters="sRGB">
<feFlood flood-opacity="0" result="BackgroundImageFix"/>
<feGaussianBlur in="BackgroundImageFix" stdDeviation="10"/>
<feComposite in2="SourceAlpha" operator="in" result="effect1_backgroundBlur_498_15895"/>
<feBlend mode="normal" in="SourceGraphic" in2="effect1_backgroundBlur_498_15895" result="shape"/>
</filter>
<filter id="filter1_b_498_15895" x="308.5" y="170.852" width="110.832" height="204.544" filterUnits="userSpaceOnUse" color-interpolation-filters="sRGB">
<feFlood flood-opacity="0" result="BackgroundImageFix"/>
<feGaussianBlur in="BackgroundImageFix" stdDeviation="10"/>
<feComposite in2="SourceAlpha" operator="in" result="effect1_backgroundBlur_498_15895"/>
<feBlend mode="normal" in="SourceGraphic" in2="effect1_backgroundBlur_498_15895" result="shape"/>
</filter>
<radialGradient id="paint0_radial_498_15895" cx="0" cy="0" r="1" gradientUnits="userSpaceOnUse" gradientTransform="translate(900.444 306) rotate(-90) scale(334.5 1011.81)">
<stop/>
<stop offset="1" stop-opacity="0"/>
</radialGradient>
<linearGradient id="paint1_linear_498_15895" x1="434.5" y1="209" x2="132" y2="75.5" gradientUnits="userSpaceOnUse">
<stop stop-color="#0064FF"/>
<stop offset="0.510417" stop-color="#7DFFFF" stop-opacity="0.5"/>
<stop offset="1" stop-color="#88FFB3" stop-opacity="0"/>
</linearGradient>
<linearGradient id="paint2_linear_498_15895" x1="415.236" y1="424.5" x2="415.236" y2="-14" gradientUnits="userSpaceOnUse">
<stop stop-color="#0064FF"/>
<stop offset="0.510417" stop-color="#7DFFFF" stop-opacity="0.5"/>
<stop offset="1" stop-color="#88FFB3" stop-opacity="0"/>
</linearGradient>
<linearGradient id="paint3_linear_498_15895" x1="1488.48" y1="428" x2="1488.48" y2="-137" gradientUnits="userSpaceOnUse">
<stop stop-color="#0064FF"/>
<stop offset="0.510417" stop-color="#7DFFFF" stop-opacity="0.5"/>
<stop offset="1" stop-color="#88FFB3" stop-opacity="0"/>
</linearGradient>
<linearGradient id="paint4_linear_498_15895" x1="494" y1="442.5" x2="494" y2="47.5001" gradientUnits="userSpaceOnUse">
<stop stop-color="#0064FF"/>
<stop offset="0.510417" stop-color="#7DFFFF" stop-opacity="0.5"/>
<stop offset="1" stop-color="#88FFB3" stop-opacity="0"/>
</linearGradient>
<radialGradient id="paint5_radial_498_15895" cx="0" cy="0" r="1" gradientUnits="userSpaceOnUse" gradientTransform="translate(1247.16 297.5) scale(762.464 85.627)">
<stop stop-color="#0064FF"/>
<stop offset="0.510417" stop-color="#7DFFFF" stop-opacity="0.5"/>
<stop offset="1" stop-color="#88FFB3" stop-opacity="0"/>
</radialGradient>
<linearGradient id="paint6_linear_498_15895" x1="1685" y1="142" x2="1372" y2="142" gradientUnits="userSpaceOnUse">
<stop stop-color="#0064FF"/>
<stop offset="0.510417" stop-color="#7DFFFF" stop-opacity="0.5"/>
<stop offset="1" stop-color="#88FFB3" stop-opacity="0"/>
</linearGradient>
<linearGradient id="paint7_linear_498_15895" x1="1273" y1="291" x2="1409.5" y2="291" gradientUnits="userSpaceOnUse">
<stop stop-color="#0064FF"/>
<stop offset="0.802685" stop-color="#DEEFFF" stop-opacity="0.2"/>
</linearGradient>
<linearGradient id="paint8_linear_498_15895" x1="433.197" y1="227.965" x2="496.24" y2="227.965" gradientUnits="userSpaceOnUse">
<stop stop-color="#33DDFF"/>
<stop offset="1" stop-color="#88FFB3"/>
</linearGradient>
<linearGradient id="paint9_linear_498_15895" x1="574.5" y1="241" x2="574.5" y2="316.192" gradientUnits="userSpaceOnUse">
<stop stop-color="#7CFFFF"/>
<stop offset="0.520833" stop-color="#8DFFEA" stop-opacity="0.21"/>
<stop offset="0.802685" stop-color="#8DFFD6" stop-opacity="0"/>
</linearGradient>
<linearGradient id="paint10_linear_498_15895" x1="659" y1="339" x2="659" y2="398" gradientUnits="userSpaceOnUse">
<stop stop-color="#0064FF"/>
<stop offset="0.802685" stop-color="#DEEFFF" stop-opacity="0.2"/>
</linearGradient>
<linearGradient id="paint11_linear_498_15895" x1="493" y1="181" x2="493" y2="228.769" gradientUnits="userSpaceOnUse">
<stop stop-color="#8DFFA6"/>
<stop offset="0.520833" stop-color="#8DFFEA" stop-opacity="0.21"/>
<stop offset="0.802685" stop-color="#8DFFD6" stop-opacity="0"/>
</linearGradient>
<linearGradient id="paint12_linear_498_15895" x1="292" y1="374" x2="292" y2="421.769" gradientUnits="userSpaceOnUse">
<stop stop-color="#8DFFA6"/>
<stop offset="0.520833" stop-color="#8DFFEA" stop-opacity="0.21"/>
<stop offset="0.802685" stop-color="#8DFFD6" stop-opacity="0"/>
</linearGradient>
<linearGradient id="paint13_linear_498_15895" x1="249" y1="271" x2="249" y2="340.141" gradientUnits="userSpaceOnUse">
<stop stop-color="#0064FF"/>
<stop offset="0.802685" stop-color="#DEEFFF" stop-opacity="0.2"/>
</linearGradient>
<linearGradient id="paint14_linear_498_15895" x1="1485.31" y1="214.74" x2="1525.23" y2="214.74" gradientUnits="userSpaceOnUse">
<stop stop-color="#33DDFF"/>
<stop offset="1" stop-color="#88FFB3"/>
</linearGradient>
<linearGradient id="paint15_linear_498_15895" x1="1497.44" y1="278.53" x2="1405.34" y2="278.53" gradientUnits="userSpaceOnUse">
<stop stop-color="#7DFFFF"/>
<stop offset="1" stop-color="#0064FF"/>
</linearGradient>
<clipPath id="clip0_498_15895">
<rect width="1920" height="396" fill="white"/>
</clipPath>
</defs>
</svg>
