<svg width="1260" height="342" viewBox="0 0 1260 342" fill="none" xmlns="http://www.w3.org/2000/svg">
<g clip-path="url(#clip0_1121_25493)">
<g clip-path="url(#clip1_1121_25493)">
<mask id="mask0_1121_25493" style="mask-type:alpha" maskUnits="userSpaceOnUse" x="-476" y="0" width="2212" height="342">
<path d="M1735.55 0H-475.363V342H1735.55V0Z" fill="url(#paint0_radial_1121_25493)"/>
</mask>
<g mask="url(#mask0_1121_25493)">
<path d="M452.183 -176.342V520.303" stroke="#D3E5F9"/>
<path d="M1170.73 -176.342V520.303" stroke="#D3E5F9"/>
<path d="M272.546 -176.342V520.303" stroke="#D3E5F9"/>
<path d="M991.092 -176.342V520.303" stroke="#D3E5F9"/>
<path d="M182.728 -176.342V520.303" stroke="#D3E5F9"/>
<path d="M811.455 -176.342V520.303" stroke="#D3E5F9"/>
<path d="M92.9092 -176.342V520.303" stroke="#D3E5F9"/>
<path d="M631.818 -176.342V520.303" stroke="#D3E5F9"/>
<path d="M362.364 -176.342V520.303" stroke="#D3E5F9"/>
<path d="M1080.91 -176.342V520.303" stroke="#D3E5F9"/>
<path d="M901.273 -176.342V520.303" stroke="#D3E5F9"/>
<path d="M721.637 -176.342V520.303" stroke="#D3E5F9"/>
<path d="M542.001 -176.342V520.303" stroke="#D3E5F9"/>
<path d="M3.0918 -176.342V520.303" stroke="#D3E5F9"/>
<path d="M1454 170.996H-190.365" stroke="#D3E5F9"/>
<path d="M1454 260.693H-190.365" stroke="#D3E5F9"/>
<path d="M1454 81.3066H-190.365" stroke="#D3E5F9"/>
<path d="M1080.82 83.3404C1081.72 83.3404 1082.46 82.6083 1082.46 81.7053C1082.46 80.8023 1081.72 80.0703 1080.82 80.0703C1079.91 80.0703 1079.18 80.8023 1079.18 81.7053C1079.18 82.6083 1079.91 83.3404 1080.82 83.3404Z" fill="#8DAAFF"/>
<path d="M1080.82 173.031C1081.72 173.031 1082.46 172.299 1082.46 171.396C1082.46 170.493 1081.72 169.761 1080.82 169.761C1079.91 169.761 1079.18 170.493 1079.18 171.396C1079.18 172.299 1079.91 173.031 1080.82 173.031Z" fill="#8DAAFF"/>
<path d="M1080.82 262.728C1081.72 262.728 1082.46 261.996 1082.46 261.093C1082.46 260.19 1081.72 259.458 1080.82 259.458C1079.91 259.458 1079.18 260.19 1079.18 261.093C1079.18 261.996 1079.91 262.728 1080.82 262.728Z" fill="#8DAAFF"/>
<path d="M991.002 83.3404C991.906 83.3404 992.639 82.6083 992.639 81.7053C992.639 80.8023 991.906 80.0703 991.002 80.0703C990.097 80.0703 989.364 80.8023 989.364 81.7053C989.364 82.6083 990.097 83.3404 991.002 83.3404Z" fill="#8DAAFF"/>
<path d="M991.002 173.031C991.906 173.031 992.639 172.299 992.639 171.396C992.639 170.493 991.906 169.761 991.002 169.761C990.097 169.761 989.364 170.493 989.364 171.396C989.364 172.299 990.097 173.031 991.002 173.031Z" fill="#8DAAFF"/>
<path d="M991.002 262.728C991.906 262.728 992.639 261.996 992.639 261.093C992.639 260.19 991.906 259.458 991.002 259.458C990.097 259.458 989.364 260.19 989.364 261.093C989.364 261.996 990.097 262.728 991.002 262.728Z" fill="#8DAAFF"/>
<path d="M901.183 83.3404C902.088 83.3404 902.821 82.6083 902.821 81.7053C902.821 80.8023 902.088 80.0703 901.183 80.0703C900.279 80.0703 899.546 80.8023 899.546 81.7053C899.546 82.6083 900.279 83.3404 901.183 83.3404Z" fill="#8DAAFF"/>
<path d="M901.183 173.031C902.088 173.031 902.821 172.299 902.821 171.396C902.821 170.493 902.088 169.761 901.183 169.761C900.279 169.761 899.546 170.493 899.546 171.396C899.546 172.299 900.279 173.031 901.183 173.031Z" fill="#8DAAFF"/>
<path d="M901.183 262.728C902.088 262.728 902.821 261.996 902.821 261.093C902.821 260.19 902.088 259.458 901.183 259.458C900.279 259.458 899.546 260.19 899.546 261.093C899.546 261.996 900.279 262.728 901.183 262.728Z" fill="#8DAAFF"/>
<path d="M811.365 83.3404C812.27 83.3404 813.003 82.6083 813.003 81.7053C813.003 80.8023 812.27 80.0703 811.365 80.0703C810.461 80.0703 809.728 80.8023 809.728 81.7053C809.728 82.6083 810.461 83.3404 811.365 83.3404Z" fill="#8DAAFF"/>
<path d="M811.365 173.031C812.27 173.031 813.003 172.299 813.003 171.396C813.003 170.493 812.27 169.761 811.365 169.761C810.461 169.761 809.728 170.493 809.728 171.396C809.728 172.299 810.461 173.031 811.365 173.031Z" fill="#8DAAFF"/>
<path d="M811.365 262.728C812.27 262.728 813.003 261.996 813.003 261.093C813.003 260.19 812.27 259.458 811.365 259.458C810.461 259.458 809.728 260.19 809.728 261.093C809.728 261.996 810.461 262.728 811.365 262.728Z" fill="#8DAAFF"/>
<path d="M721.547 83.3404C722.451 83.3404 723.184 82.6083 723.184 81.7053C723.184 80.8023 722.451 80.0703 721.547 80.0703C720.642 80.0703 719.909 80.8023 719.909 81.7053C719.909 82.6083 720.642 83.3404 721.547 83.3404Z" fill="#8DAAFF"/>
<path d="M721.547 173.031C722.451 173.031 723.184 172.299 723.184 171.396C723.184 170.493 722.451 169.761 721.547 169.761C720.642 169.761 719.909 170.493 719.909 171.396C719.909 172.299 720.642 173.031 721.547 173.031Z" fill="#8DAAFF"/>
<path d="M721.547 262.728C722.451 262.728 723.184 261.996 723.184 261.093C723.184 260.19 722.451 259.458 721.547 259.458C720.642 259.458 719.909 260.19 719.909 261.093C719.909 261.996 720.642 262.728 721.547 262.728Z" fill="#8DAAFF"/>
<path d="M631.728 83.3404C632.633 83.3404 633.366 82.6083 633.366 81.7053C633.366 80.8023 632.633 80.0703 631.728 80.0703C630.824 80.0703 630.091 80.8023 630.091 81.7053C630.091 82.6083 630.824 83.3404 631.728 83.3404Z" fill="#8DAAFF"/>
<path d="M631.728 173.031C632.633 173.031 633.366 172.299 633.366 171.396C633.366 170.493 632.633 169.761 631.728 169.761C630.824 169.761 630.091 170.493 630.091 171.396C630.091 172.299 630.824 173.031 631.728 173.031Z" fill="#8DAAFF"/>
<path d="M631.728 262.728C632.633 262.728 633.366 261.996 633.366 261.093C633.366 260.19 632.633 259.458 631.728 259.458C630.824 259.458 630.091 260.19 630.091 261.093C630.091 261.996 630.824 262.728 631.728 262.728Z" fill="#8DAAFF"/>
<path d="M541.911 83.3404C542.815 83.3404 543.549 82.6083 543.549 81.7053C543.549 80.8023 542.815 80.0703 541.911 80.0703C541.007 80.0703 540.273 80.8023 540.273 81.7053C540.273 82.6083 541.007 83.3404 541.911 83.3404Z" fill="#8DAAFF"/>
<path d="M541.911 173.031C542.815 173.031 543.549 172.299 543.549 171.396C543.549 170.493 542.815 169.761 541.911 169.761C541.007 169.761 540.273 170.493 540.273 171.396C540.273 172.299 541.007 173.031 541.911 173.031Z" fill="#8DAAFF"/>
<path d="M541.911 262.728C542.815 262.728 543.549 261.996 543.549 261.093C543.549 260.19 542.815 259.458 541.911 259.458C541.007 259.458 540.273 260.19 540.273 261.093C540.273 261.996 541.007 262.728 541.911 262.728Z" fill="#8DAAFF"/>
<path d="M452.093 83.3404C452.997 83.3404 453.73 82.6083 453.73 81.7053C453.73 80.8023 452.997 80.0703 452.093 80.0703C451.188 80.0703 450.455 80.8023 450.455 81.7053C450.455 82.6083 451.188 83.3404 452.093 83.3404Z" fill="#8DAAFF"/>
<path d="M452.093 173.031C452.997 173.031 453.73 172.299 453.73 171.396C453.73 170.493 452.997 169.761 452.093 169.761C451.188 169.761 450.455 170.493 450.455 171.396C450.455 172.299 451.188 173.031 452.093 173.031Z" fill="#8DAAFF"/>
<path d="M452.093 262.728C452.997 262.728 453.73 261.996 453.73 261.093C453.73 260.19 452.997 259.458 452.093 259.458C451.188 259.458 450.455 260.19 450.455 261.093C450.455 261.996 451.188 262.728 452.093 262.728Z" fill="#8DAAFF"/>
<path d="M362.274 83.3404C363.179 83.3404 363.912 82.6083 363.912 81.7053C363.912 80.8023 363.179 80.0703 362.274 80.0703C361.37 80.0703 360.637 80.8023 360.637 81.7053C360.637 82.6083 361.37 83.3404 362.274 83.3404Z" fill="#8DAAFF"/>
<path d="M362.274 173.031C363.179 173.031 363.912 172.299 363.912 171.396C363.912 170.493 363.179 169.761 362.274 169.761C361.37 169.761 360.637 170.493 360.637 171.396C360.637 172.299 361.37 173.031 362.274 173.031Z" fill="#8DAAFF"/>
<path d="M362.274 262.728C363.179 262.728 363.912 261.996 363.912 261.093C363.912 260.19 363.179 259.458 362.274 259.458C361.37 259.458 360.637 260.19 360.637 261.093C360.637 261.996 361.37 262.728 362.274 262.728Z" fill="#8DAAFF"/>
<path d="M272.456 83.3404C273.36 83.3404 274.094 82.6083 274.094 81.7053C274.094 80.8023 273.36 80.0703 272.456 80.0703C271.552 80.0703 270.818 80.8023 270.818 81.7053C270.818 82.6083 271.552 83.3404 272.456 83.3404Z" fill="#8DAAFF"/>
<path d="M272.456 173.031C273.36 173.031 274.094 172.299 274.094 171.396C274.094 170.493 273.36 169.761 272.456 169.761C271.552 169.761 270.818 170.493 270.818 171.396C270.818 172.299 271.552 173.031 272.456 173.031Z" fill="#8DAAFF"/>
<path d="M272.456 262.728C273.36 262.728 274.094 261.996 274.094 261.093C274.094 260.19 273.36 259.458 272.456 259.458C271.552 259.458 270.818 260.19 270.818 261.093C270.818 261.996 271.552 262.728 272.456 262.728Z" fill="#8DAAFF"/>
<path d="M182.638 83.3404C183.542 83.3404 184.275 82.6083 184.275 81.7053C184.275 80.8023 183.542 80.0703 182.638 80.0703C181.733 80.0703 181 80.8023 181 81.7053C181 82.6083 181.733 83.3404 182.638 83.3404Z" fill="#8DAAFF"/>
<path d="M182.638 173.031C183.542 173.031 184.275 172.299 184.275 171.396C184.275 170.493 183.542 169.761 182.638 169.761C181.733 169.761 181 170.493 181 171.396C181 172.299 181.733 173.031 182.638 173.031Z" fill="#8DAAFF"/>
<path d="M182.638 262.728C183.542 262.728 184.275 261.996 184.275 261.093C184.275 260.19 183.542 259.458 182.638 259.458C181.733 259.458 181 260.19 181 261.093C181 261.996 181.733 262.728 182.638 262.728Z" fill="#8DAAFF"/>
<path d="M92.8192 83.3404C93.7236 83.3404 94.4568 82.6083 94.4568 81.7053C94.4568 80.8023 93.7236 80.0703 92.8192 80.0703C91.9148 80.0703 91.1816 80.8023 91.1816 81.7053C91.1816 82.6083 91.9148 83.3404 92.8192 83.3404Z" fill="#8DAAFF"/>
<path d="M92.8192 173.031C93.7236 173.031 94.4568 172.299 94.4568 171.396C94.4568 170.493 93.7236 169.761 92.8192 169.761C91.9148 169.761 91.1816 170.493 91.1816 171.396C91.1816 172.299 91.9148 173.031 92.8192 173.031Z" fill="#8DAAFF"/>
<path d="M92.8192 262.728C93.7236 262.728 94.4568 261.996 94.4568 261.093C94.4568 260.19 93.7236 259.458 92.8192 259.458C91.9148 259.458 91.1816 260.19 91.1816 261.093C91.1816 261.996 91.9148 262.728 92.8192 262.728Z" fill="#8DAAFF"/>
<path d="M3.00184 83.3404C3.90625 83.3404 4.63942 82.6083 4.63942 81.7053C4.63942 80.8023 3.90625 80.0703 3.00184 80.0703C2.09743 80.0703 1.36426 80.8023 1.36426 81.7053C1.36426 82.6083 2.09743 83.3404 3.00184 83.3404Z" fill="#8DAAFF"/>
<path d="M3.00184 173.031C3.90625 173.031 4.63942 172.299 4.63942 171.396C4.63942 170.493 3.90625 169.761 3.00184 169.761C2.09743 169.761 1.36426 170.493 1.36426 171.396C1.36426 172.299 2.09743 173.031 3.00184 173.031Z" fill="#8DAAFF"/>
<path d="M3.00184 262.728C3.90625 262.728 4.63942 261.996 4.63942 261.093C4.63942 260.19 3.90625 259.458 3.00184 259.458C2.09743 259.458 1.36426 260.19 1.36426 261.093C1.36426 261.996 2.09743 262.728 3.00184 262.728Z" fill="#8DAAFF"/>
<path d="M1170.64 83.3404C1171.54 83.3404 1172.28 82.6083 1172.28 81.7053C1172.28 80.8023 1171.54 80.0703 1170.64 80.0703C1169.73 80.0703 1169 80.8023 1169 81.7053C1169 82.6083 1169.73 83.3404 1170.64 83.3404Z" fill="#8DAAFF"/>
<path d="M1170.64 173.031C1171.54 173.031 1172.28 172.299 1172.28 171.396C1172.28 170.493 1171.54 169.761 1170.64 169.761C1169.73 169.761 1169 170.493 1169 171.396C1169 172.299 1169.73 173.031 1170.64 173.031Z" fill="#8DAAFF"/>
<path d="M1170.64 262.728C1171.54 262.728 1172.28 261.996 1172.28 261.093C1172.28 260.19 1171.54 259.458 1170.64 259.458C1169.73 259.458 1169 260.19 1169 261.093C1169 261.996 1169.73 262.728 1170.64 262.728Z" fill="#8DAAFF"/>
<path d="M1260.46 83.3404C1261.36 83.3404 1262.09 82.6083 1262.09 81.7053C1262.09 80.8023 1261.36 80.0703 1260.46 80.0703C1259.55 80.0703 1258.82 80.8023 1258.82 81.7053C1258.82 82.6083 1259.55 83.3404 1260.46 83.3404Z" fill="#8DAAFF"/>
<path d="M1260.46 173.031C1261.36 173.031 1262.09 172.299 1262.09 171.396C1262.09 170.493 1261.36 169.761 1260.46 169.761C1259.55 169.761 1258.82 170.493 1258.82 171.396C1258.82 172.299 1259.55 173.031 1260.46 173.031Z" fill="#8DAAFF"/>
<path d="M1260.46 262.728C1261.36 262.728 1262.09 261.996 1262.09 261.093C1262.09 260.19 1261.36 259.458 1260.46 259.458C1259.55 259.458 1258.82 260.19 1258.82 261.093C1258.82 261.996 1259.55 262.728 1260.46 262.728Z" fill="#8DAAFF"/>
</g>
<path d="M92.4779 81.1816H-122.136" stroke="url(#paint1_linear_1121_25493)" stroke-width="4" stroke-linecap="round" stroke-linejoin="round"/>
<path d="M92.9102 350.205C92.9102 350.205 92.9115 145.826 92.9115 -12.0908" stroke="url(#paint2_linear_1121_25493)" stroke-width="4" stroke-linecap="round" stroke-linejoin="round"/>
<path d="M1172.46 353.659C1172.46 353.659 1172.45 149.28 1172.45 -8.63672" stroke="url(#paint3_linear_1121_25493)" stroke-width="4" stroke-linecap="round" stroke-linejoin="round"/>
<path d="M182.728 261.682H272.978V80.75" stroke="url(#paint4_linear_1121_25493)" stroke-width="4" stroke-linecap="round" stroke-linejoin="round"/>
<path d="M1175.05 260.818H1350.36" stroke="url(#paint5_radial_1121_25493)" stroke-width="4" stroke-linecap="round" stroke-linejoin="round"/>
<path d="M1171.16 80.75L991.092 80.75" stroke="url(#paint6_linear_1121_25493)" stroke-width="4" stroke-linecap="round" stroke-linejoin="round"/>
<path d="M1045.36 251.318H901.409C900.857 251.318 900.409 251.766 900.409 252.318V267.591C900.409 268.143 900.857 268.591 901.409 268.591H1045.36C1045.92 268.591 1046.36 268.143 1046.36 267.591V252.318C1046.36 251.766 1045.92 251.318 1045.36 251.318Z" fill="url(#paint7_linear_1121_25493)" fill-opacity="0.6"/>
<path d="M910.141 261.25C910.141 265.909 906.364 269.686 901.705 269.686C897.046 269.686 893.269 265.909 893.269 261.25C893.269 256.591 897.046 252.813 901.705 252.813C906.364 252.813 910.141 256.591 910.141 261.25Z" fill="white" stroke="#8DAAFF"/>
<path d="M917.682 262.847V259.652C917.682 259.211 917.325 258.853 916.883 258.853H914.083C913.718 258.853 913.402 258.603 913.31 258.25C913.029 257.152 912.593 256.115 912.032 255.164C911.846 254.849 911.894 254.449 912.152 254.192L914.131 252.213C914.443 251.901 914.443 251.396 914.131 251.082L911.872 248.823C911.561 248.512 911.055 248.512 910.742 248.823L908.765 250.801C908.505 251.06 908.106 251.106 907.79 250.92C906.837 250.357 905.799 249.922 904.701 249.638C904.349 249.544 904.101 249.229 904.101 248.863V246.071C904.101 245.63 903.744 245.272 903.302 245.272H900.107C899.666 245.272 899.308 245.63 899.308 246.071V248.863C899.308 249.229 899.061 249.544 898.705 249.636C897.607 249.92 896.568 250.355 895.615 250.918C895.3 251.104 894.9 251.058 894.641 250.799L892.664 248.821C892.352 248.51 891.847 248.51 891.533 248.821L889.276 251.082C888.965 251.394 888.965 251.899 889.276 252.213L891.256 254.192C891.513 254.449 891.561 254.851 891.375 255.164C890.814 256.117 890.379 257.154 890.097 258.25C890.007 258.603 889.692 258.853 889.326 258.853H886.526C886.085 258.853 885.728 259.211 885.728 259.652V262.847C885.728 263.289 886.085 263.646 886.526 263.646H889.33C889.696 263.646 890.011 263.894 890.103 264.247C890.387 265.342 890.822 266.376 891.383 267.327C891.569 267.643 891.523 268.042 891.264 268.302L889.276 270.289C888.965 270.6 888.965 271.106 889.276 271.419L891.535 273.678C891.847 273.99 892.352 273.99 892.666 273.678L894.655 271.689C894.912 271.431 895.314 271.383 895.627 271.569C896.576 272.13 897.611 272.564 898.705 272.845C899.059 272.937 899.308 273.253 899.308 273.618V276.428C899.308 276.87 899.666 277.227 900.107 277.227H903.302C903.744 277.227 904.101 276.87 904.101 276.428V273.616C904.101 273.251 904.349 272.935 904.704 272.843C905.799 272.562 906.831 272.128 907.782 271.567C908.098 271.381 908.497 271.429 908.755 271.687L910.744 273.676C911.055 273.988 911.561 273.988 911.874 273.676L914.133 271.417C914.445 271.106 914.445 270.6 914.133 270.287L912.146 268.3C911.886 268.04 911.84 267.641 912.026 267.325C912.587 266.374 913.023 265.34 913.306 264.245C913.398 263.892 913.714 263.644 914.079 263.644H916.883C917.325 263.646 917.682 263.289 917.682 262.847ZM902.486 268.388C897.91 268.873 894.072 265.034 894.557 260.459C894.91 257.126 897.591 254.445 900.924 254.092C905.499 253.607 909.338 257.445 908.853 262.021C908.499 265.354 905.819 268.034 902.486 268.388Z" fill="#DEEFFF" stroke="#8DAAFF"/>
<path d="M904.322 261.103C904.537 260.771 904.299 260.332 903.902 260.332H903.189C902.899 260.332 902.67 260.085 902.691 259.796L902.947 256.172C902.984 255.656 902.31 255.431 902.029 255.865L898.697 261.006C898.482 261.339 898.721 261.778 899.117 261.778H899.831C900.121 261.778 900.35 262.024 900.33 262.314L900.073 265.938C900.037 266.453 900.711 266.678 900.991 266.245L904.322 261.103Z" fill="#0064FF"/>
<g filter="url(#filter0_b_1121_25493)">
<path d="M180.56 223.113C180.56 221.186 179.452 219.43 177.713 218.6L145.083 203.026V306.502H180.56V223.113Z" fill="#DEEFFF"/>
<path d="M180.56 223.113C180.56 221.186 179.452 219.43 177.713 218.6L145.083 203.026V306.502H180.56V223.113Z" stroke="#8DAAFF"/>
</g>
<g filter="url(#filter1_b_1121_25493)">
<path d="M85.1367 190.505C85.1367 188.454 86.3892 186.611 88.296 185.856L138.605 165.936C141.887 164.637 145.446 167.055 145.446 170.585V306.502H86.1367C85.5844 306.502 85.1367 306.054 85.1367 305.502V190.505Z" fill="white"/>
<path d="M85.1367 190.505C85.1367 188.454 86.3892 186.611 88.296 185.856L138.605 165.936C141.887 164.637 145.446 167.055 145.446 170.585V306.502H86.1367C85.5844 306.502 85.1367 306.054 85.1367 305.502V190.505Z" stroke="#8DAAFF"/>
</g>
<path fill-rule="evenodd" clip-rule="evenodd" d="M93.0547 203.958C93.0547 203.406 93.5024 202.958 94.0547 202.958H137.298C137.85 202.958 138.298 203.406 138.298 203.958V209.648C138.298 210.2 137.85 210.648 137.298 210.648H94.0547C93.5024 210.648 93.0547 210.2 93.0547 209.648V203.958Z" fill="#DEEFFF"/>
<path fill-rule="evenodd" clip-rule="evenodd" d="M93.0547 242.407C93.0547 241.855 93.5024 241.407 94.0547 241.407H137.298C137.85 241.407 138.298 241.855 138.298 242.407V248.097C138.298 248.649 137.85 249.097 137.298 249.097H94.0547C93.5024 249.097 93.0547 248.649 93.0547 248.097V242.407Z" fill="#DEEFFF"/>
<path fill-rule="evenodd" clip-rule="evenodd" d="M93.0547 223.183C93.0547 222.63 93.5024 222.183 94.0547 222.183H137.298C137.85 222.183 138.298 222.63 138.298 223.183V228.872C138.298 229.425 137.85 229.872 137.298 229.872H94.0547C93.5024 229.872 93.0547 229.425 93.0547 228.872V223.183Z" fill="#DEEFFF"/>
<path fill-rule="evenodd" clip-rule="evenodd" d="M93.0547 280.856C93.0547 280.304 93.5024 279.856 94.0547 279.856H137.298C137.85 279.856 138.298 280.304 138.298 280.856V286.546C138.298 287.099 137.85 287.546 137.298 287.546H94.0547C93.5024 287.546 93.0547 287.099 93.0547 286.546V280.856Z" fill="#DEEFFF"/>
<path fill-rule="evenodd" clip-rule="evenodd" d="M93.0547 261.632C93.0547 261.08 93.5024 260.632 94.0547 260.632H137.298C137.85 260.632 138.298 261.08 138.298 261.632V267.322C138.298 267.874 137.85 268.322 137.298 268.322H94.0547C93.5024 268.322 93.0547 267.874 93.0547 267.322V261.632Z" fill="#DEEFFF"/>
<path d="M201.91 327.319L155.457 300.578V285.975L201.91 312.715V327.319Z" fill="white" stroke="#8DAAFF" stroke-miterlimit="10" stroke-linecap="round" stroke-linejoin="round"/>
<path d="M167.362 302.783C168.745 301.86 168.558 299.174 166.945 296.783C165.332 294.392 162.904 293.202 161.522 294.125C160.14 295.049 160.327 297.735 161.94 300.126C163.552 302.517 165.98 303.706 167.362 302.783Z" fill="#8DAAFF" stroke="#8DAAFF" stroke-miterlimit="10" stroke-linecap="round" stroke-linejoin="round"/>
<path d="M178.812 304.614L196.756 314.957" stroke="#8DAAFF" stroke-width="2" stroke-miterlimit="10" stroke-linecap="round" stroke-linejoin="round"/>
<path d="M178.812 308.821L196.756 319.164" stroke="#8DAAFF" stroke-width="2" stroke-miterlimit="10" stroke-linecap="round" stroke-linejoin="round"/>
<path d="M155.457 285.977L201.91 259.18L248.363 285.977L201.91 312.745L155.457 285.977Z" fill="#8DAAFF" stroke="#8DAAFF" stroke-miterlimit="10" stroke-linecap="round" stroke-linejoin="round"/>
<path d="M248.364 285.975L201.911 312.743V327.319L248.364 300.55V285.975Z" fill="#DEEFFF" stroke="#8DAAFF" stroke-miterlimit="10" stroke-linecap="round" stroke-linejoin="round"/>
<path d="M201.91 307.842L155.457 281.101V266.497L201.91 293.238V307.842Z" fill="white" stroke="#8DAAFF" stroke-miterlimit="10" stroke-linecap="round" stroke-linejoin="round"/>
<path d="M167.362 283.304C168.745 282.381 168.558 279.694 166.945 277.303C165.332 274.913 162.904 273.723 161.522 274.646C160.14 275.569 160.327 278.255 161.94 280.646C163.552 283.037 165.98 284.227 167.362 283.304Z" fill="#8DAAFF" stroke="#8DAAFF" stroke-miterlimit="10" stroke-linecap="round" stroke-linejoin="round"/>
<path d="M178.812 285.138L196.756 295.481" stroke="#8DAAFF" stroke-width="2" stroke-miterlimit="10" stroke-linecap="round" stroke-linejoin="round"/>
<path d="M178.812 289.343L196.756 299.686" stroke="#8DAAFF" stroke-width="2" stroke-miterlimit="10" stroke-linecap="round" stroke-linejoin="round"/>
<path d="M155.457 266.498L201.91 239.701L248.363 266.498L201.91 293.267L155.457 266.498Z" fill="#8DAAFF" stroke="#8DAAFF" stroke-miterlimit="10" stroke-linecap="round" stroke-linejoin="round"/>
<path d="M248.363 266.497L201.91 293.266V307.842L248.363 281.073V266.497Z" fill="#DEEFFF" stroke="#8DAAFF" stroke-miterlimit="10" stroke-linecap="round" stroke-linejoin="round"/>
<path d="M201.91 288.362L155.457 261.621V246.989L201.91 273.758V288.362Z" fill="white" stroke="#8DAAFF" stroke-miterlimit="10" stroke-linecap="round" stroke-linejoin="round"/>
<path d="M167.362 263.821C168.745 262.898 168.558 260.212 166.945 257.821C165.332 255.43 162.904 254.24 161.522 255.163C160.14 256.087 160.327 258.773 161.94 261.164C163.552 263.555 165.98 264.744 167.362 263.821Z" fill="#8DAAFF" stroke="#8DAAFF" stroke-miterlimit="10" stroke-linecap="round" stroke-linejoin="round"/>
<path d="M178.811 265.655L196.755 275.998" stroke="#8DAAFF" stroke-width="2" stroke-miterlimit="10" stroke-linecap="round" stroke-linejoin="round"/>
<path d="M178.811 269.862L196.755 280.177" stroke="#8DAAFF" stroke-width="2" stroke-miterlimit="10" stroke-linecap="round" stroke-linejoin="round"/>
<path d="M155.457 246.989L201.91 220.22L248.363 246.989L201.91 273.785L155.457 246.989Z" fill="white" stroke="#8DAAFF" stroke-miterlimit="10" stroke-linecap="round" stroke-linejoin="round"/>
<path d="M248.364 246.989L201.911 273.786V288.362L248.364 261.593V246.989Z" fill="#DEEFFF" stroke="#8DAAFF" stroke-miterlimit="10" stroke-linecap="round" stroke-linejoin="round"/>
<path d="M202.349 253.342C200.902 253.342 199.455 252.953 198.18 252.146L192.377 248.504C181.574 241.718 175.126 230.483 175.126 218.442V211.024C175.126 207.745 177.791 204.977 181.316 204.614C186.445 204.076 191.431 202.383 195.701 199.709L198.466 197.989C200.83 196.51 203.896 196.51 206.261 197.989L209.026 199.709C213.296 202.37 218.267 204.076 223.411 204.614C226.907 204.99 229.572 207.745 229.572 211.037V218.456C229.572 230.483 223.125 241.718 212.307 248.518L206.504 252.16C205.243 252.939 203.796 253.342 202.349 253.342Z" fill="url(#paint8_linear_1121_25493)" stroke="#BCFFD4" stroke-miterlimit="10" stroke-linecap="round" stroke-linejoin="round"/>
<path fill-rule="evenodd" clip-rule="evenodd" d="M192.4 223.99C191.881 224.507 191.881 225.347 192.4 225.865L199.27 232.715C199.519 232.964 199.857 233.103 200.21 233.103C200.563 233.103 200.901 232.963 201.15 232.715L213.24 220.655C213.759 220.137 213.759 219.298 213.239 218.78C212.72 218.263 211.878 218.263 211.359 218.781L200.21 229.902L194.28 223.99C193.761 223.472 192.919 223.472 192.4 223.99Z" fill="white"/>
<path d="M300.909 208.137H293.409C292.857 208.137 292.409 208.584 292.409 209.137V280.546C292.409 281.098 292.857 281.546 293.409 281.546H300.909C301.461 281.546 301.909 281.098 301.909 280.546V209.137C301.909 208.584 301.461 208.137 300.909 208.137Z" fill="url(#paint9_linear_1121_25493)" fill-opacity="0.6"/>
<path d="M386.409 292.772H371.137C370.584 292.772 370.137 293.22 370.137 293.772V347.045C370.137 347.597 370.584 348.045 371.137 348.045H386.409C386.962 348.045 387.409 347.597 387.409 347.045V293.772C387.409 293.22 386.962 292.772 386.409 292.772Z" fill="url(#paint10_linear_1121_25493)" fill-opacity="0.6"/>
<path d="M227.5 156.318H226.046C225.494 156.318 225.046 156.766 225.046 157.318V201.955C225.046 202.507 225.494 202.955 226.046 202.955H227.5C228.053 202.955 228.5 202.507 228.5 201.955V157.318C228.5 156.766 228.053 156.318 227.5 156.318Z" fill="url(#paint11_linear_1121_25493)" fill-opacity="0.6"/>
<path d="M53.9096 323H52.4551C51.9028 323 51.4551 323.448 51.4551 324V368.636C51.4551 369.189 51.9028 369.636 52.4551 369.636H53.9096C54.4619 369.636 54.9096 369.189 54.9096 368.636V324C54.9096 323.448 54.4619 323 53.9096 323Z" fill="url(#paint12_linear_1121_25493)" fill-opacity="0.6"/>
<path d="M28.0005 234.046H17.0459C16.4936 234.046 16.0459 234.494 16.0459 235.046V297.819C16.0459 298.371 16.4936 298.819 17.0459 298.819H28.0005C28.5527 298.819 29.0005 298.371 29.0005 297.819V235.046C29.0005 234.494 28.5527 234.046 28.0005 234.046Z" fill="url(#paint13_linear_1121_25493)" fill-opacity="0.6"/>
<path d="M1138.61 229.783C1140.14 228.885 1141.08 227.244 1141.08 225.469V184.555C1141.08 182.781 1140.14 181.14 1138.61 180.242L1103.84 159.844C1102.28 158.927 1100.34 158.927 1098.78 159.844L1064.01 180.242C1062.48 181.14 1061.54 182.781 1061.54 184.555V225.469C1061.54 227.244 1062.48 228.885 1064.01 229.783L1098.78 250.162C1100.34 251.078 1102.28 251.078 1103.84 250.162L1138.61 229.783Z" fill="white" stroke="#8DAAFF" stroke-miterlimit="10" stroke-linecap="round" stroke-linejoin="round"/>
<path d="M1099.13 185.971C1100.29 185.287 1101.73 185.287 1102.89 185.971L1116.43 193.994C1117.56 194.656 1118.25 195.862 1118.25 197.163V213.367C1118.25 214.669 1117.56 215.874 1116.43 216.537L1102.89 224.559C1101.73 225.243 1100.29 225.243 1099.13 224.559L1085.58 216.537C1084.46 215.874 1083.77 214.669 1083.77 213.367V197.163C1083.77 195.862 1084.46 194.656 1085.58 193.994L1099.13 185.971Z" fill="url(#paint14_linear_1121_25493)" stroke="#BCFFD4" stroke-miterlimit="10" stroke-linecap="round" stroke-linejoin="round"/>
<path fill-rule="evenodd" clip-rule="evenodd" d="M1092.19 203.809C1091.74 204.26 1091.74 204.991 1092.19 205.442L1098.18 211.409C1098.39 211.626 1098.69 211.748 1098.99 211.748C1099.3 211.747 1099.6 211.626 1099.82 211.409L1110.35 200.903C1110.8 200.453 1110.8 199.722 1110.34 199.271C1109.89 198.82 1109.16 198.82 1108.7 199.271L1098.99 208.959L1093.83 203.809C1093.37 203.357 1092.64 203.357 1092.19 203.809Z" fill="white"/>
<path d="M1180.35 311.828C1181.88 310.93 1182.82 309.289 1182.82 307.514V266.6C1182.82 264.826 1181.88 263.185 1180.35 262.287L1145.58 241.889C1144.02 240.972 1142.08 240.972 1140.52 241.889L1105.75 262.287C1104.22 263.185 1103.28 264.826 1103.28 266.6V307.514C1103.28 309.289 1104.22 310.93 1105.75 311.828L1140.52 332.207C1142.08 333.123 1144.02 333.123 1145.58 332.207L1180.35 311.828Z" fill="white" stroke="#8DAAFF" stroke-miterlimit="10" stroke-linecap="round" stroke-linejoin="round"/>
<path d="M1160.36 296.869V303.134C1160.36 305.623 1158.7 308.112 1155.35 310.025C1148.62 313.816 1137.68 313.816 1130.92 310.025C1129.22 309.085 1127.95 307.981 1127.11 306.81C1126.26 305.64 1125.84 304.403 1125.82 303.15V296.853C1125.84 299.342 1127.53 301.831 1130.92 303.744C1137.68 307.552 1148.62 307.552 1155.35 303.744C1158.7 301.831 1160.36 299.342 1160.36 296.869Z" fill="white" stroke="#8DAAFF" stroke-miterlimit="10" stroke-linecap="round" stroke-linejoin="round"/>
<path d="M1160.36 296.835V296.868C1160.36 299.341 1158.69 301.83 1155.35 303.71C1148.62 307.518 1137.68 307.518 1130.92 303.71C1127.55 301.814 1125.84 299.325 1125.82 296.819C1125.8 294.329 1127.48 291.84 1130.83 289.944C1137.56 286.136 1148.5 286.136 1155.26 289.944C1158.65 291.856 1160.35 294.346 1160.36 296.835Z" fill="#DEEFFF" stroke="#8DAAFF" stroke-miterlimit="10" stroke-linecap="round" stroke-linejoin="round"/>
<path d="M1160.36 284.141V290.406C1160.36 292.895 1158.7 295.385 1155.35 297.297C1148.62 301.105 1137.68 301.105 1130.92 297.297C1129.22 296.341 1127.95 295.253 1127.11 294.066C1126.26 292.895 1125.84 291.659 1125.82 290.406V284.108C1125.84 286.598 1127.53 289.087 1130.92 290.983C1137.68 294.791 1148.62 294.791 1155.35 290.983C1158.7 289.087 1160.36 286.614 1160.36 284.141Z" fill="white" stroke="#8DAAFF" stroke-miterlimit="10" stroke-linecap="round" stroke-linejoin="round"/>
<path d="M1160.36 284.107V284.14C1160.36 286.613 1158.69 289.102 1155.35 290.998C1148.62 294.806 1137.68 294.806 1130.92 290.998C1127.55 289.102 1125.84 286.613 1125.82 284.123C1125.8 281.634 1127.48 279.145 1130.83 277.232C1137.56 273.424 1148.5 273.424 1155.26 277.232C1158.65 279.112 1160.35 281.617 1160.36 284.107Z" fill="#DEEFFF" stroke="#8DAAFF" stroke-miterlimit="10" stroke-linecap="round" stroke-linejoin="round"/>
<path d="M1160.36 271.446V277.711C1160.36 280.2 1158.7 282.689 1155.35 284.585C1148.62 288.394 1137.68 288.394 1130.92 284.585C1129.22 283.629 1127.95 282.541 1127.11 281.371C1126.26 280.2 1125.84 278.947 1125.82 277.711V271.413C1125.84 273.902 1127.53 276.392 1130.92 278.288C1137.68 282.096 1148.62 282.096 1155.35 278.288C1158.7 276.392 1160.36 273.919 1160.36 271.446Z" fill="white" stroke="#8DAAFF" stroke-miterlimit="10" stroke-linecap="round" stroke-linejoin="round"/>
<path d="M1160.36 271.412V271.445C1160.36 273.918 1158.69 276.408 1155.35 278.287C1148.62 282.095 1137.68 282.095 1130.92 278.287C1127.55 276.391 1125.84 273.902 1125.82 271.412C1125.8 268.923 1127.48 266.434 1130.83 264.538C1137.56 260.73 1148.5 260.73 1155.26 264.538C1158.65 266.434 1160.35 268.907 1160.36 271.412Z" fill="#DEEFFF" stroke="#8DAAFF" stroke-miterlimit="10" stroke-linecap="round" stroke-linejoin="round"/>
<path d="M1091.77 311.971C1093.3 311.074 1094.24 309.432 1094.24 307.658V266.743C1094.24 264.97 1093.3 263.329 1091.77 262.431L1057 242.032C1055.44 241.116 1053.5 241.116 1051.94 242.032L1017.17 262.431C1015.64 263.329 1014.7 264.97 1014.7 266.743V307.658C1014.7 309.432 1015.64 311.074 1017.17 311.971L1051.94 332.351C1053.51 333.266 1055.44 333.266 1057 332.351L1091.77 311.971Z" fill="white" stroke="url(#paint15_linear_1121_25493)" stroke-miterlimit="10" stroke-linecap="round" stroke-linejoin="round"/>
<path fill-rule="evenodd" clip-rule="evenodd" d="M1061.27 279.965V285.111H1064.25L1064.25 290.698V279.965C1064.25 274.686 1059.91 270.407 1054.57 270.407C1049.22 270.407 1044.89 274.686 1044.89 279.965V285.111H1047.86V279.965C1047.86 276.31 1050.86 273.348 1054.57 273.348C1058.27 273.348 1061.27 276.31 1061.27 279.965Z" fill="#DEEFFF"/>
<path d="M1061.27 285.111H1060.77V285.611H1061.27V285.111ZM1064.25 285.111L1064.75 285.111V284.611H1064.25V285.111ZM1044.89 285.111H1044.39V285.611H1044.89V285.111ZM1047.86 285.111V285.611H1048.36V285.111H1047.86ZM1061.77 285.111V279.965H1060.77V285.111H1061.77ZM1061.27 285.611H1064.25V284.611H1061.27V285.611ZM1063.75 285.111L1063.75 290.698H1064.75L1064.75 285.111L1063.75 285.111ZM1064.75 290.698V279.965H1063.75V290.698H1064.75ZM1064.75 279.965C1064.75 274.404 1060.18 269.907 1054.57 269.907V270.907C1059.64 270.907 1063.75 274.968 1063.75 279.965H1064.75ZM1054.57 269.907C1048.95 269.907 1044.39 274.404 1044.39 279.965H1045.39C1045.39 274.968 1049.49 270.907 1054.57 270.907V269.907ZM1044.39 279.965V285.111H1045.39V279.965H1044.39ZM1044.89 285.611H1047.86V284.611H1044.89V285.611ZM1047.36 279.965V285.111H1048.36V279.965H1047.36ZM1054.57 272.848C1050.59 272.848 1047.36 276.028 1047.36 279.965H1048.36C1048.36 276.592 1051.13 273.848 1054.57 273.848V272.848ZM1061.77 279.965C1061.77 276.028 1058.54 272.848 1054.57 272.848V273.848C1058 273.848 1060.77 276.592 1060.77 279.965H1061.77Z" fill="#0064FF"/>
<rect x="1040.63" y="284.565" width="27.5544" height="20.7006" rx="2.24999" fill="#0064FF" stroke="#0064FF" stroke-width="0.499999"/>
<path fill-rule="evenodd" clip-rule="evenodd" d="M1055.8 296.435C1055.8 296.235 1055.92 296.057 1056.09 295.961C1057.11 295.396 1057.8 294.319 1057.8 293.083C1057.8 291.262 1056.3 289.786 1054.46 289.786C1052.62 289.786 1051.12 291.262 1051.12 293.083C1051.12 294.319 1051.81 295.397 1052.83 295.961C1053 296.058 1053.12 296.235 1053.12 296.435V298.709C1053.12 299.446 1053.72 300.044 1054.46 300.044C1055.2 300.044 1055.8 299.446 1055.8 298.709V296.435Z" fill="white"/>
<path d="M1052.83 295.961L1052.59 296.398L1052.83 295.961ZM1056.09 295.961L1055.85 295.523L1056.09 295.961ZM1057.3 293.083C1057.3 294.128 1056.72 295.042 1055.85 295.523L1056.33 296.398C1057.5 295.75 1058.3 294.511 1058.3 293.083H1057.3ZM1054.46 290.286C1056.03 290.286 1057.3 291.544 1057.3 293.083H1058.3C1058.3 290.98 1056.58 289.286 1054.46 289.286V290.286ZM1051.62 293.083C1051.62 291.544 1052.89 290.286 1054.46 290.286V289.286C1052.35 289.286 1050.62 290.98 1050.62 293.083H1051.62ZM1053.07 295.523C1052.2 295.042 1051.62 294.128 1051.62 293.083H1050.62C1050.62 294.511 1051.42 295.751 1052.59 296.398L1053.07 295.523ZM1053.62 298.709V296.435H1052.62V298.709H1053.62ZM1054.46 299.544C1054 299.544 1053.62 299.17 1053.62 298.709H1052.62C1052.62 299.722 1053.45 300.544 1054.46 300.544V299.544ZM1055.3 298.709C1055.3 299.17 1054.92 299.544 1054.46 299.544V300.544C1055.47 300.544 1056.3 299.722 1056.3 298.709H1055.3ZM1055.3 296.435V298.709H1056.3V296.435H1055.3ZM1052.59 296.398C1052.61 296.408 1052.62 296.42 1052.62 296.428C1052.63 296.436 1052.62 296.437 1052.62 296.435H1053.62C1053.62 296.027 1053.38 295.695 1053.07 295.523L1052.59 296.398ZM1055.85 295.523C1055.54 295.694 1055.3 296.027 1055.3 296.435H1056.3C1056.3 296.437 1056.3 296.435 1056.3 296.428C1056.31 296.42 1056.32 296.408 1056.33 296.398L1055.85 295.523Z" fill="#8DAAFF"/>
<path d="M1226.78 229.926C1228.31 229.029 1229.25 227.387 1229.25 225.613V184.699C1229.25 182.925 1228.31 181.284 1226.78 180.386L1192.01 159.987C1190.45 159.071 1188.51 159.071 1186.95 159.987L1152.18 180.386C1150.65 181.284 1149.71 182.925 1149.71 184.699V225.613C1149.71 227.387 1150.65 229.029 1152.19 229.926L1186.95 250.306C1188.52 251.221 1190.45 251.221 1192.01 250.306L1226.78 229.926Z" fill="white" stroke="#8DAAFF" stroke-miterlimit="10" stroke-linecap="round" stroke-linejoin="round"/>
<path fill-rule="evenodd" clip-rule="evenodd" d="M1195.27 195.725C1192.79 195.725 1190.78 197.746 1190.78 200.24V214.63C1190.78 218.546 1187.62 221.721 1183.72 221.721C1179.83 221.721 1176.67 218.546 1176.67 214.63V204.882H1179.23V214.63C1179.23 217.124 1181.24 219.145 1183.72 219.145C1186.2 219.145 1188.22 217.124 1188.22 214.63V200.24C1188.22 196.324 1191.37 193.149 1195.27 193.149C1199.17 193.149 1202.33 196.324 1202.33 200.24V205.346H1199.76V200.24C1199.76 197.746 1197.75 195.725 1195.27 195.725Z" fill="#226AFF"/>
<path d="M1171.71 194.438H1184.65V198.647C1184.65 202.219 1181.75 205.114 1178.18 205.114V205.114C1174.61 205.114 1171.71 202.219 1171.71 198.647V194.438Z" fill="#DEEFFF" stroke="#8DAAFF"/>
<rect x="1169.86" y="192.581" width="16.6295" height="1.85682" rx="0.92841" fill="#8DAAFF" stroke="#8DAAFF"/>
<path d="M1173.56 187.701C1173.56 187.063 1174.08 186.546 1174.71 186.546V186.546C1175.35 186.546 1175.87 187.063 1175.87 187.701V192.581H1173.56V187.701Z" fill="white" stroke="#8DAAFF"/>
<path d="M1180.49 187.701C1180.49 187.063 1181.01 186.546 1181.64 186.546V186.546C1182.28 186.546 1182.8 187.063 1182.8 187.701V192.581H1180.49V187.701Z" fill="white" stroke="#8DAAFF"/>
<path d="M1207.74 215.791L1194.81 215.791L1194.81 211.581C1194.81 208.01 1197.7 205.114 1201.28 205.114V205.114C1204.85 205.114 1207.74 208.01 1207.74 211.581L1207.74 215.791Z" fill="#DEEFFF" stroke="#8DAAFF"/>
<rect x="1209.59" y="217.647" width="16.6295" height="1.85682" rx="0.928409" transform="rotate(-180 1209.59 217.647)" fill="#8DAAFF" stroke="#8DAAFF"/>
<path d="M1205.89 222.528C1205.89 223.166 1205.38 223.683 1204.74 223.683V223.683C1204.1 223.683 1203.58 223.166 1203.58 222.528L1203.58 217.648L1205.89 217.648L1205.89 222.528Z" fill="white" stroke="#8DAAFF"/>
<path d="M1198.97 222.528C1198.97 223.166 1198.45 223.683 1197.81 223.683V223.683C1197.17 223.683 1196.66 223.166 1196.66 222.528L1196.66 217.648L1198.97 217.648L1198.97 222.528Z" fill="white" stroke="#8DAAFF"/>
</g>
</g>
<defs>
<filter id="filter0_b_1121_25493" x="124.583" y="182.233" width="76.4766" height="144.769" filterUnits="userSpaceOnUse" color-interpolation-filters="sRGB">
<feFlood flood-opacity="0" result="BackgroundImageFix"/>
<feGaussianBlur in="BackgroundImageFix" stdDeviation="10"/>
<feComposite in2="SourceAlpha" operator="in" result="effect1_backgroundBlur_1121_25493"/>
<feBlend mode="normal" in="SourceGraphic" in2="effect1_backgroundBlur_1121_25493" result="shape"/>
</filter>
<filter id="filter1_b_1121_25493" x="64.6367" y="145.079" width="101.31" height="181.923" filterUnits="userSpaceOnUse" color-interpolation-filters="sRGB">
<feFlood flood-opacity="0" result="BackgroundImageFix"/>
<feGaussianBlur in="BackgroundImageFix" stdDeviation="10"/>
<feComposite in2="SourceAlpha" operator="in" result="effect1_backgroundBlur_1121_25493"/>
<feBlend mode="normal" in="SourceGraphic" in2="effect1_backgroundBlur_1121_25493" result="shape"/>
</filter>
<radialGradient id="paint0_radial_1121_25493" cx="0" cy="0" r="1" gradientUnits="userSpaceOnUse" gradientTransform="translate(578.657 264.273) rotate(-90) scale(288.886 873.834)">
<stop/>
<stop offset="1" stop-opacity="0"/>
</radialGradient>
<linearGradient id="paint1_linear_1121_25493" x1="176.251" y1="196.182" x2="-96.2901" y2="92.3049" gradientUnits="userSpaceOnUse">
<stop stop-color="#0064FF"/>
<stop offset="0.510417" stop-color="#7DFFFF" stop-opacity="0.5"/>
<stop offset="1" stop-color="#88FFB3" stop-opacity="0"/>
</linearGradient>
<linearGradient id="paint2_linear_1121_25493" x1="159.69" y1="366.614" x2="159.69" y2="-12.0908" gradientUnits="userSpaceOnUse">
<stop stop-color="#0064FF"/>
<stop offset="0.510417" stop-color="#7DFFFF" stop-opacity="0.5"/>
<stop offset="1" stop-color="#88FFB3" stop-opacity="0"/>
</linearGradient>
<linearGradient id="paint3_linear_1121_25493" x1="1093.37" y1="369.636" x2="1093.37" y2="-118.319" gradientUnits="userSpaceOnUse">
<stop stop-color="#0064FF"/>
<stop offset="0.510417" stop-color="#7DFFFF" stop-opacity="0.5"/>
<stop offset="1" stop-color="#88FFB3" stop-opacity="0"/>
</linearGradient>
<linearGradient id="paint4_linear_1121_25493" x1="227.637" y1="382.159" x2="227.637" y2="41.0228" gradientUnits="userSpaceOnUse">
<stop stop-color="#0064FF"/>
<stop offset="0.510417" stop-color="#7DFFFF" stop-opacity="0.5"/>
<stop offset="1" stop-color="#88FFB3" stop-opacity="0"/>
</linearGradient>
<radialGradient id="paint5_radial_1121_25493" cx="0" cy="0" r="1" gradientUnits="userSpaceOnUse" gradientTransform="translate(878.096 256.318) scale(658.492 85.627)">
<stop stop-color="#0064FF"/>
<stop offset="0.510417" stop-color="#7DFFFF" stop-opacity="0.5"/>
<stop offset="1" stop-color="#88FFB3" stop-opacity="0"/>
</radialGradient>
<linearGradient id="paint6_linear_1121_25493" x1="1256.23" y1="129.25" x2="985.91" y2="129.25" gradientUnits="userSpaceOnUse">
<stop stop-color="#0064FF"/>
<stop offset="0.510417" stop-color="#7DFFFF" stop-opacity="0.5"/>
<stop offset="1" stop-color="#88FFB3" stop-opacity="0"/>
</linearGradient>
<linearGradient id="paint7_linear_1121_25493" x1="900.409" y1="251.318" x2="1018.3" y2="251.318" gradientUnits="userSpaceOnUse">
<stop stop-color="#0064FF"/>
<stop offset="0.802685" stop-color="#DEEFFF" stop-opacity="0.2"/>
</linearGradient>
<linearGradient id="paint8_linear_1121_25493" x1="175.126" y1="196.88" x2="229.572" y2="196.88" gradientUnits="userSpaceOnUse">
<stop stop-color="#33DDFF"/>
<stop offset="1" stop-color="#88FFB3"/>
</linearGradient>
<linearGradient id="paint9_linear_1121_25493" x1="297.159" y1="208.137" x2="297.159" y2="273.075" gradientUnits="userSpaceOnUse">
<stop stop-color="#7CFFFF"/>
<stop offset="0.520833" stop-color="#8DFFEA" stop-opacity="0.21"/>
<stop offset="0.802685" stop-color="#8DFFD6" stop-opacity="0"/>
</linearGradient>
<linearGradient id="paint10_linear_1121_25493" x1="370.137" y1="292.772" x2="370.137" y2="343.727" gradientUnits="userSpaceOnUse">
<stop stop-color="#0064FF"/>
<stop offset="0.802685" stop-color="#DEEFFF" stop-opacity="0.2"/>
</linearGradient>
<linearGradient id="paint11_linear_1121_25493" x1="226.773" y1="156.318" x2="226.773" y2="197.573" gradientUnits="userSpaceOnUse">
<stop stop-color="#8DFFA6"/>
<stop offset="0.520833" stop-color="#8DFFEA" stop-opacity="0.21"/>
<stop offset="0.802685" stop-color="#8DFFD6" stop-opacity="0"/>
</linearGradient>
<linearGradient id="paint12_linear_1121_25493" x1="53.1823" y1="323" x2="53.1823" y2="364.255" gradientUnits="userSpaceOnUse">
<stop stop-color="#8DFFA6"/>
<stop offset="0.520833" stop-color="#8DFFEA" stop-opacity="0.21"/>
<stop offset="0.802685" stop-color="#8DFFD6" stop-opacity="0"/>
</linearGradient>
<linearGradient id="paint13_linear_1121_25493" x1="16.0459" y1="234.046" x2="16.0459" y2="293.758" gradientUnits="userSpaceOnUse">
<stop stop-color="#0064FF"/>
<stop offset="0.802685" stop-color="#DEEFFF" stop-opacity="0.2"/>
</linearGradient>
<linearGradient id="paint14_linear_1121_25493" x1="1083.77" y1="185.458" x2="1118.25" y2="185.458" gradientUnits="userSpaceOnUse">
<stop stop-color="#33DDFF"/>
<stop offset="1" stop-color="#88FFB3"/>
</linearGradient>
<linearGradient id="paint15_linear_1121_25493" x1="1094.24" y1="240.548" x2="1014.7" y2="240.548" gradientUnits="userSpaceOnUse">
<stop stop-color="#7DFFFF"/>
<stop offset="1" stop-color="#0064FF"/>
</linearGradient>
<clipPath id="clip0_1121_25493">
<rect width="1260" height="342" fill="white"/>
</clipPath>
<clipPath id="clip1_1121_25493">
<rect width="1658.18" height="342" fill="white" transform="translate(-199)"/>
</clipPath>
</defs>
</svg>
