<svg width="100" height="100" viewBox="0 0 100 100" fill="none" xmlns="http://www.w3.org/2000/svg">
<path d="M50.003 65V83.3145M18 83L18 78.3333C18 75.5719 20.2386 73.3333 23 73.3333H77C79.7614 73.3333 82 75.5719 82 78.3333V83" stroke="#8DAAFF"/>
<circle cx="18" cy="88" r="6" fill="white" stroke="#8DAAFF"/>
<circle cx="50" cy="88" r="6" fill="white" stroke="#8DAAFF"/>
<circle cx="82" cy="88" r="6" fill="white" stroke="#8DAAFF"/>
<g filter="url(#filter0_b_264_322)">
<path d="M81.58 35.2433C81.5604 35.2433 81.5408 35.2433 81.5114 35.2433C80.845 20.0953 68.1639 8 52.5721 8C40.626 8 30.3654 15.1069 25.926 25.2473C25.1518 25.1607 24.3678 25.1029 23.574 25.1029C12.3629 25.1029 3.27832 34.0395 3.27832 45.0563C3.27832 56.073 12.3629 65 23.574 65H81.58C89.9394 65 96.7209 58.336 96.7209 50.1216C96.7209 41.9073 89.9394 35.2433 81.58 35.2433Z" fill="#DEEFFF"/>
<path d="M81.58 35.2433C81.5604 35.2433 81.5408 35.2433 81.5114 35.2433C80.845 20.0953 68.1639 8 52.5721 8C40.626 8 30.3654 15.1069 25.926 25.2473C25.1518 25.1607 24.3678 25.1029 23.574 25.1029C12.3629 25.1029 3.27832 34.0395 3.27832 45.0563C3.27832 56.073 12.3629 65 23.574 65H81.58C89.9394 65 96.7209 58.336 96.7209 50.1216C96.7209 41.9073 89.9394 35.2433 81.58 35.2433Z" stroke="#8DAAFF" stroke-miterlimit="10" stroke-linecap="round" stroke-linejoin="round"/>
</g>
<path d="M29.4424 52.8525L36.0991 32.2952H41.5407L48.1974 52.8525H43.7332L42.4124 48.6583H35.201L33.8802 52.8525H29.4424ZM36.3368 44.9331H41.2765L38.2652 35.2201H39.3746L36.3368 44.9331Z" fill="#0064FF"/>
<path d="M50.2425 52.8525V32.2952H57.7974C59.1534 32.2952 60.3509 32.5435 61.3899 33.0402C62.4465 33.5369 63.2742 34.2727 63.873 35.2477C64.4717 36.2227 64.7711 37.4276 64.7711 38.8625C64.7711 40.2606 64.4629 41.4471 63.8465 42.4221C63.2478 43.3971 62.4201 44.1421 61.3635 44.6572C60.3245 45.1539 59.1358 45.4022 57.7974 45.4022H54.3369V52.8525H50.2425ZM54.3369 41.6771H57.8238C58.4049 41.6771 58.9068 41.5575 59.3295 41.3183C59.7521 41.0792 60.0779 40.7481 60.3069 40.325C60.5534 39.9019 60.6767 39.4144 60.6767 38.8625C60.6767 38.2922 60.5534 37.7955 60.3069 37.3724C60.0779 36.9493 59.7521 36.6182 59.3295 36.379C58.9068 36.1399 58.4049 36.0203 57.8238 36.0203H54.3369V41.6771Z" fill="#0064FF"/>
<path d="M67.3972 52.8525V32.2952H71.4916V52.8525H67.3972Z" fill="#0064FF"/>
<defs>
<filter id="filter0_b_264_322" x="-17.2217" y="-12.5" width="134.442" height="98" filterUnits="userSpaceOnUse" color-interpolation-filters="sRGB">
<feFlood flood-opacity="0" result="BackgroundImageFix"/>
<feGaussianBlur in="BackgroundImageFix" stdDeviation="10"/>
<feComposite in2="SourceAlpha" operator="in" result="effect1_backgroundBlur_264_322"/>
<feBlend mode="normal" in="SourceGraphic" in2="effect1_backgroundBlur_264_322" result="shape"/>
</filter>
</defs>
</svg>
