<svg width="20" height="20" viewBox="0 0 20 20" fill="none" xmlns="http://www.w3.org/2000/svg">
<path fill-rule="evenodd" clip-rule="evenodd" d="M7.90184 3.9609C7.23319 5.46536 6.79922 7.59981 6.79922 9.99995C6.79922 12.4001 7.23319 14.5345 7.90184 16.039C8.23661 16.7922 8.61452 17.3523 8.99375 17.7132C9.36885 18.0701 9.70724 18.2 9.99922 18.2C10.2912 18.2 10.6296 18.0701 11.0047 17.7132C11.3839 17.3523 11.7618 16.7922 12.0966 16.039C12.7652 14.5345 13.1992 12.4001 13.1992 9.99995C13.1992 7.59981 12.7652 5.46536 12.0966 3.9609C11.7618 3.20766 11.3839 2.64763 11.0047 2.28673C10.6296 1.92976 10.2912 1.79995 9.99922 1.79995C9.70724 1.79995 9.36885 1.92976 8.99375 2.28673C8.61452 2.64763 8.23661 3.20766 7.90184 3.9609ZM7.89073 1.1277C8.47273 0.573823 9.18663 0.199951 9.99922 0.199951C10.8118 0.199951 11.5257 0.573823 12.1077 1.1277C12.6856 1.67765 13.1696 2.43564 13.5587 3.31108C14.3378 5.06398 14.7992 7.42953 14.7992 9.99995C14.7992 12.5704 14.3378 14.9359 13.5587 16.6888C13.1696 17.5643 12.6856 18.3222 12.1077 18.8722C11.5257 19.4261 10.8118 19.7999 9.99922 19.7999C9.18663 19.7999 8.47273 19.4261 7.89073 18.8722C7.31285 18.3222 6.82883 17.5643 6.43974 16.6888C5.66067 14.9359 5.19922 12.5704 5.19922 9.99995C5.19922 7.42953 5.66067 5.06398 6.43974 3.31108C6.82883 2.43564 7.31285 1.67765 7.89073 1.1277Z" fill="currentColor"/>
<path fill-rule="evenodd" clip-rule="evenodd" d="M3.06957 3.0703C4.90743 1.23245 7.4001 0.199951 9.99922 0.199951C12.5983 0.199951 15.091 1.23245 16.9289 3.0703C18.7667 4.90816 19.7992 7.40083 19.7992 9.99995C19.7992 12.5991 18.7667 15.0917 16.9289 16.9296C15.091 18.7675 12.5983 19.7999 9.99922 19.7999C7.4001 19.7999 4.90743 18.7675 3.06957 16.9296C1.23172 15.0917 0.199219 12.5991 0.199219 9.99995C0.199219 7.40083 1.23172 4.90816 3.06957 3.0703ZM9.99922 1.79995C7.82444 1.79995 5.73874 2.66388 4.20094 4.20168C2.66315 5.73947 1.79922 7.82518 1.79922 9.99995C1.79922 12.1747 2.66315 14.2604 4.20094 15.7982C5.73874 17.336 7.82444 18.2 9.99922 18.2C12.174 18.2 14.2597 17.336 15.7975 15.7982C17.3353 14.2604 18.1992 12.1747 18.1992 9.99995C18.1992 7.82518 17.3353 5.73947 15.7975 4.20168C14.2597 2.66388 12.174 1.79995 9.99922 1.79995Z" fill="currentColor"/>
<path fill-rule="evenodd" clip-rule="evenodd" d="M19 7.79995H1V6.19995H19V7.79995Z" fill="currentColor"/>
<path fill-rule="evenodd" clip-rule="evenodd" d="M19 13.8L1 13.8L1 12.2L19 12.2L19 13.8Z" fill="currentColor"/>
</svg>
