<svg width="100" height="100" viewBox="0 0 100 100" fill="none" xmlns="http://www.w3.org/2000/svg">
<circle cx="49.0996" cy="50" r="22.5" fill="white"/>
<path d="M70.1998 50C70.1998 61.1562 61.156 70.2001 49.9998 70.2001C38.8437 70.2001 29.7998 61.1562 29.7998 50C29.7998 38.8439 38.8437 29.8 49.9998 29.8C61.156 29.8 70.1998 38.8439 70.1998 50Z" fill="white" stroke="#0064FF"/>
<path fill-rule="evenodd" clip-rule="evenodd" d="M57.2944 44.7445L57.4088 44.1178C57.9303 41.2571 56.7628 38.351 54.4039 36.6461C51.7645 34.7376 48.2005 34.7376 45.5611 36.6461C43.2042 38.349 42.0366 41.2552 42.5581 44.1158L42.6726 44.7444C42.2042 44.7358 41.7455 44.9531 41.4589 45.3517C41.1033 45.8476 41.0934 46.5114 41.4332 47.0191L42.745 48.9631C42.9243 49.2279 43.2149 49.3824 43.5195 49.3942L43.5203 49.3986C43.7475 50.6413 44.4073 51.7654 45.3813 52.5695L46.9842 53.8915V54.9761C46.9842 55.8572 46.3875 56.6257 45.536 56.845L41.6856 57.8348C40.7215 58.0818 39.7416 58.2695 38.7538 58.3939C38.2283 58.4591 37.7818 58.8088 37.5901 59.3027L37.1239 60.5039C36.0709 63.2164 37.1022 66.2944 39.5756 67.8274L39.6349 67.865C40.84 68.6118 42.1676 69.1412 43.5565 69.4316L43.6691 69.4553C47.81 70.3207 52.0871 70.3246 56.23 69.4652L56.2764 69.4556L56.3446 69.4415C57.7769 69.1452 59.146 68.5979 60.3887 67.8294C62.8641 66.2983 63.8934 63.2203 62.8404 60.5058L62.3741 59.3047C62.1845 58.8088 61.738 58.4611 61.2125 58.3939C60.2247 58.2695 59.2448 58.0837 58.2807 57.8348L54.4302 56.845C53.5768 56.6257 52.9821 55.8572 52.9821 54.9761V53.8933L54.5856 52.5695C55.5596 51.7654 56.2175 50.6432 56.4447 49.4006L56.4458 49.3944C56.7522 49.384 57.0448 49.2293 57.2251 48.9631L58.5369 47.0191C58.8767 46.5114 58.8668 45.8476 58.5112 45.3517C58.224 44.9522 57.7639 44.7348 57.2944 44.7445Z" fill="#0064FF"/>
<path d="M95 54.5V45.5C95 44.2569 93.9931 43.25 92.75 43.25H84.8637C83.8344 43.25 82.9456 42.5469 82.6869 41.5513C81.8938 38.4575 80.6675 35.5381 79.0869 32.8606C78.5638 31.9719 78.6987 30.8469 79.4244 30.1212L84.9988 24.5469C85.8763 23.6694 85.8763 22.2463 84.9988 21.3631L78.6369 15.0013C77.7594 14.1238 76.3363 14.1238 75.4531 15.0013L69.8844 20.57C69.1531 21.3013 68.0281 21.4306 67.1394 20.9075C64.4563 19.3213 61.5312 18.095 58.4375 17.2963C57.4475 17.0319 56.75 16.1431 56.75 15.1137V7.25C56.75 6.00687 55.7431 5 54.5 5H45.5C44.2569 5 43.25 6.00687 43.25 7.25V15.1137C43.25 16.1431 42.5525 17.0319 41.5513 17.2906C38.4575 18.0894 35.5325 19.3156 32.8494 20.9019C31.9606 21.425 30.8356 21.2956 30.1044 20.5644L24.5356 14.9956C23.6581 14.1181 22.235 14.1181 21.3519 14.9956L14.9956 21.3631C14.1181 22.2406 14.1181 23.6637 14.9956 24.5469L20.57 30.1212C21.2956 30.8469 21.4306 31.9775 20.9075 32.8606C19.3269 35.5437 18.1006 38.4631 17.3075 41.5513C17.0544 42.5469 16.1656 43.25 15.1363 43.25H7.25C6.00687 43.25 5 44.2569 5 45.5V54.5C5 55.7431 6.00687 56.75 7.25 56.75H15.1475C16.1769 56.75 17.0656 57.4475 17.3244 58.4431C18.1231 61.5256 19.3494 64.4394 20.93 67.1169C21.4531 68.0056 21.3237 69.1306 20.5925 69.8619L14.9956 75.4588C14.1181 76.3363 14.1181 77.7594 14.9956 78.6425L21.3575 85.0044C22.235 85.8819 23.6581 85.8819 24.5413 85.0044L30.1438 79.4019C30.8694 78.6763 32 78.5412 32.8831 79.0644C35.555 80.645 38.4688 81.8656 41.5513 82.6587C42.5469 82.9175 43.25 83.8062 43.25 84.8356V92.75C43.25 93.9931 44.2569 95 45.5 95H54.5C55.7431 95 56.75 93.9931 56.75 92.75V84.83C56.75 83.8006 57.4475 82.9119 58.4487 82.6531C61.5312 81.86 64.4394 80.6394 67.1169 79.0588C68.0056 78.5356 69.1306 78.6706 69.8563 79.3962L75.4588 84.9988C76.3363 85.8763 77.7594 85.8763 78.6425 84.9988L85.0044 78.6369C85.8819 77.7594 85.8819 76.3363 85.0044 75.4531L79.4075 69.8563C78.6762 69.125 78.5469 68 79.07 67.1112C80.6506 64.4337 81.8769 61.52 82.6756 58.4375C82.9344 57.4419 83.8231 56.7444 84.8525 56.7444H92.75C93.9931 56.75 95 55.7431 95 54.5ZM52.1994 70.1037C39.3125 71.4706 28.5012 60.6594 29.8681 47.7725C30.8637 38.3844 38.4125 30.8356 47.8006 29.84C60.6875 28.4731 71.4988 39.2844 70.1319 52.1713C69.1363 61.5594 61.5875 69.1081 52.1994 70.1037Z" fill="#DEEFFF" stroke="#8DAAFF"/>
</svg>
