<svg width="180" height="24" viewBox="0 0 180 24" fill="none" xmlns="http://www.w3.org/2000/svg">
<mask id="mask0_309_1617" style="mask-type:luminance" maskUnits="userSpaceOnUse" x="0" y="0" width="176" height="24">
<path d="M0 0H176V24H0V0Z" fill="white"/>
</mask>
<g mask="url(#mask0_309_1617)">
<path d="M52.0192 18.733C51.5145 18.7326 51.0175 18.6088 50.5717 18.3722C50.1258 18.1357 49.7446 17.7937 49.4612 17.376L44.0772 9.71003C43.9822 9.56602 43.8421 9.45758 43.6789 9.40166C43.5157 9.34575 43.3386 9.34553 43.1752 9.40103C43.0102 9.44587 42.8649 9.54467 42.7625 9.68168C42.6601 9.81869 42.6065 9.98603 42.6102 10.157V18.734H40.2822V10.157C40.2822 8.77203 41.1492 7.61403 42.4922 7.20603C43.8362 6.79803 45.2122 7.27203 46.0082 8.41903L51.3922 16.087C51.4872 16.2308 51.6272 16.339 51.7902 16.3947C51.9532 16.4504 52.1301 16.4506 52.2932 16.395C52.4581 16.3502 52.6033 16.2516 52.7057 16.1148C52.8081 15.978 52.8618 15.8109 52.8582 15.64V7.05603H55.1872V15.639C55.1872 17.023 54.3192 18.182 52.9762 18.589C52.6562 18.689 52.3322 18.733 52.0192 18.733ZM61.0302 9.35003H71.2222V7.05703H61.2152C59.1612 7.05703 57.4932 8.70103 57.4932 10.725V15.066C57.4932 17.09 59.1612 18.734 61.2152 18.734H71.2222V16.44H61.0302C60.712 16.4416 60.4062 16.3171 60.1796 16.0937C59.953 15.8703 59.8241 15.5662 59.8212 15.248V14.145H68.7602V11.85H59.8202V10.548C59.8202 9.88703 60.3632 9.35203 61.0292 9.35203L61.0302 9.35003ZM83.6652 18.733H74.2102V16.44H83.6302C84.2742 16.44 84.8732 15.987 84.9292 15.353C84.9962 14.641 84.4252 14.046 83.7192 14.046H77.2052C75.4022 14.046 73.7962 12.771 73.5672 11.012C73.2872 8.88203 74.9712 7.05703 77.0812 7.05703H86.1042V9.35003H77.1542C76.5162 9.35003 75.9402 9.79603 75.8732 10.42C75.8571 10.5881 75.8765 10.7578 75.93 10.9179C75.9836 11.0781 76.0701 11.2253 76.184 11.3499C76.2979 11.4746 76.4367 11.574 76.5914 11.6417C76.7462 11.7094 76.9133 11.7439 77.0822 11.743H83.7202C86.0422 11.743 87.8452 13.95 87.0902 16.349C86.6302 17.794 85.1972 18.732 83.6642 18.732L83.6652 18.733Z" fill="#16171A"/>
<path d="M0 11.5901C0 11.7171 0.006 11.8381 0.006 11.9601C0.011 12.0701 0.011 12.1801 0.016 12.2901C0.034 12.5281 0.056 12.7601 0.084 12.9861C0.095 13.0741 0.106 13.1621 0.124 13.2451C0.162 13.5431 0.218 13.8351 0.285 14.1161L0.369 14.4581C0.431 14.6781 0.493 14.8941 0.559 15.1041C0.565 15.1141 0.565 15.1261 0.571 15.1421C0.683 15.4791 0.811 15.8041 0.951 16.1241C0.996 16.2341 1.047 16.3391 1.097 16.4441C1.192 16.6481 1.299 16.8471 1.41 17.0451C1.416 17.0561 1.422 17.0731 1.433 17.0891C1.489 17.1831 1.539 17.2771 1.595 17.3651C1.651 17.4651 1.713 17.5641 1.78 17.6581C1.841 17.7571 1.909 17.8511 1.976 17.9501C2.166 18.2311 2.373 18.5011 2.591 18.7661C2.597 18.7771 2.603 18.7881 2.619 18.8051C2.765 18.9751 2.91 19.1411 3.062 19.3071C3.14 19.3951 3.224 19.4771 3.302 19.5551C3.369 19.6211 3.437 19.6871 3.504 19.7481C3.571 19.8141 3.638 19.8751 3.711 19.9361C3.744 19.9691 3.778 19.9961 3.817 20.0291C3.879 20.0841 3.935 20.1341 3.997 20.1841C4.069 20.2441 4.142 20.3001 4.209 20.3601C4.327 20.4541 4.444 20.5481 4.562 20.6361C4.652 20.7021 4.724 20.7581 4.808 20.8131C4.937 20.9061 5.071 21.0001 5.205 21.0831C4.9514 20.5232 4.77641 19.9309 4.685 19.3231C4.65437 19.1152 4.54965 18.9254 4.39014 18.7887C4.23063 18.652 4.02708 18.5775 3.817 18.5791H3.465C3.38156 18.1572 3.33472 17.729 3.325 17.2991V17.2931C3.325 17.2271 3.335 17.0131 3.335 17.0131L4.147 16.8691C4.545 16.7971 4.869 16.5161 4.987 16.1411C5.05935 15.9106 5.05595 15.663 4.97731 15.4346C4.89866 15.2063 4.7489 15.0091 4.55 14.8721L3.79 14.3481C3.98775 13.7841 4.25444 13.2466 4.584 12.7481L5.804 13.3111C6.146 13.4651 6.549 13.4651 6.874 13.2781C7.383 12.9801 7.562 12.3681 7.321 11.8551L6.688 10.5201C7.38094 10.0166 8.15 9.62736 8.966 9.36705L9.968 11.0821C10.033 11.1978 10.1241 11.2969 10.2339 11.3715C10.3437 11.4461 10.4694 11.4943 10.601 11.5121C11.104 11.5731 11.53 11.1871 11.53 10.7021V0.232056C5.16 0.233056 0 5.31906 0 11.5901Z" fill="#0064FF"/>
<path d="M18.6158 15.9591C18.6158 19.7431 15.5658 22.8261 11.7538 22.9421C11.6748 22.9471 11.6018 22.9471 11.5238 22.9471C11.4458 22.9471 11.3738 22.9421 11.2938 22.9421C8.95482 22.8261 7.09082 20.9171 7.09082 18.5791C7.09082 16.1691 9.07782 14.2101 11.5238 14.2101C11.6138 14.2101 11.7038 14.2041 11.7978 14.1991L11.9328 14.1821C11.9378 14.1821 11.9498 14.1771 11.9608 14.1771C13.3258 13.9731 14.3728 12.8091 14.3728 11.4071C14.3708 10.9746 14.2686 10.5484 14.0743 10.162C13.88 9.77566 13.5988 9.43954 13.2528 9.18005C16.3318 9.93505 18.6158 12.6881 18.6158 15.9591Z" fill="#0064FF"/>
<path d="M31.8076 6.8241H29.2166C25.8136 6.8241 23.0596 9.5441 23.0596 12.8921C23.0596 16.2451 25.8196 18.9591 29.2166 18.9591H31.8076C35.2106 18.9591 37.9646 16.2391 37.9646 12.8921C37.9646 9.5441 35.2106 6.8241 31.8076 6.8241ZM31.8076 16.6641H29.2166C27.1006 16.6641 25.3876 14.9771 25.3876 12.8921C25.3876 10.8071 27.1006 9.1191 29.2166 9.1191H31.8076C33.9236 9.1191 35.6366 10.8071 35.6366 12.8921C35.6366 14.9771 33.9236 16.6651 31.8076 16.6651V16.6641Z" fill="#16171A"/>
<path d="M95.5583 19.0001V7.08012H99.4463C100.705 7.08012 101.798 7.33612 102.726 7.84812C103.665 8.34945 104.39 9.04812 104.902 9.94412C105.414 10.8295 105.67 11.8588 105.67 13.0321C105.67 14.1948 105.414 15.2295 104.902 16.1361C104.39 17.0321 103.665 17.7361 102.726 18.2481C101.798 18.7495 100.705 19.0001 99.4463 19.0001H95.5583ZM97.7343 17.0801H99.4943C100.305 17.0801 101.004 16.9148 101.59 16.5841C102.188 16.2428 102.652 15.7735 102.982 15.1761C103.313 14.5681 103.478 13.8535 103.478 13.0321C103.478 12.2001 103.313 11.4855 102.982 10.8881C102.652 10.2908 102.188 9.82679 101.59 9.49612C101.004 9.16546 100.305 9.00012 99.4943 9.00012H97.7343V17.0801ZM111.354 19.1921C110.458 19.1921 109.674 18.9895 109.002 18.5841C108.33 18.1788 107.807 17.6295 107.434 16.9361C107.061 16.2428 106.874 15.4748 106.874 14.6321C106.874 13.7575 107.061 12.9841 107.434 12.3121C107.818 11.6295 108.335 11.0908 108.986 10.6961C109.647 10.3015 110.383 10.1041 111.194 10.1041C111.877 10.1041 112.474 10.2161 112.986 10.4401C113.509 10.6641 113.951 10.9735 114.314 11.3681C114.677 11.7628 114.954 12.2161 115.146 12.7281C115.338 13.2295 115.434 13.7735 115.434 14.3601C115.434 14.5095 115.423 14.6641 115.402 14.8241C115.391 14.9841 115.365 15.1228 115.322 15.2401H108.602V13.6401H114.138L113.146 14.3921C113.242 13.9015 113.215 13.4641 113.066 13.0801C112.927 12.6961 112.693 12.3921 112.362 12.1681C112.042 11.9441 111.653 11.8321 111.194 11.8321C110.757 11.8321 110.367 11.9441 110.026 12.1681C109.685 12.3815 109.423 12.7015 109.242 13.1281C109.071 13.5441 109.007 14.0508 109.05 14.6481C109.007 15.1815 109.077 15.6561 109.258 16.0721C109.45 16.4775 109.727 16.7921 110.09 17.0161C110.463 17.2401 110.89 17.3521 111.37 17.3521C111.85 17.3521 112.255 17.2508 112.586 17.0481C112.927 16.8455 113.194 16.5735 113.386 16.2321L115.082 17.0641C114.911 17.4801 114.645 17.8481 114.282 18.1681C113.919 18.4881 113.487 18.7388 112.986 18.9201C112.495 19.1015 111.951 19.1921 111.354 19.1921ZM119.491 19.0001L116.067 10.2961H118.355L120.835 17.1441H119.987L122.483 10.2961H124.771L121.347 19.0001H119.491ZM129.901 19.1921C129.005 19.1921 128.221 18.9895 127.549 18.5841C126.877 18.1788 126.354 17.6295 125.981 16.9361C125.608 16.2428 125.421 15.4748 125.421 14.6321C125.421 13.7575 125.608 12.9841 125.981 12.3121C126.365 11.6295 126.882 11.0908 127.533 10.6961C128.194 10.3015 128.93 10.1041 129.741 10.1041C130.424 10.1041 131.021 10.2161 131.533 10.4401C132.056 10.6641 132.498 10.9735 132.861 11.3681C133.224 11.7628 133.501 12.2161 133.693 12.7281C133.885 13.2295 133.981 13.7735 133.981 14.3601C133.981 14.5095 133.97 14.6641 133.949 14.8241C133.938 14.9841 133.912 15.1228 133.869 15.2401H127.149V13.6401H132.685L131.693 14.3921C131.789 13.9015 131.762 13.4641 131.613 13.0801C131.474 12.6961 131.24 12.3921 130.909 12.1681C130.589 11.9441 130.2 11.8321 129.741 11.8321C129.304 11.8321 128.914 11.9441 128.573 12.1681C128.232 12.3815 127.97 12.7015 127.789 13.1281C127.618 13.5441 127.554 14.0508 127.597 14.6481C127.554 15.1815 127.624 15.6561 127.805 16.0721C127.997 16.4775 128.274 16.7921 128.637 17.0161C129.01 17.2401 129.437 17.3521 129.917 17.3521C130.397 17.3521 130.802 17.2508 131.133 17.0481C131.474 16.8455 131.741 16.5735 131.933 16.2321L133.629 17.0641C133.458 17.4801 133.192 17.8481 132.829 18.1681C132.466 18.4881 132.034 18.7388 131.533 18.9201C131.042 19.1015 130.498 19.1921 129.901 19.1921ZM135.57 19.0001V6.88812H137.666V19.0001H135.57ZM143.857 19.1921C143.004 19.1921 142.225 18.9948 141.521 18.6001C140.828 18.2055 140.273 17.6668 139.857 16.9841C139.452 16.3015 139.249 15.5228 139.249 14.6481C139.249 13.7735 139.452 12.9948 139.857 12.3121C140.273 11.6295 140.828 11.0908 141.521 10.6961C142.214 10.3015 142.993 10.1041 143.857 10.1041C144.71 10.1041 145.484 10.3015 146.177 10.6961C146.87 11.0908 147.42 11.6295 147.825 12.3121C148.241 12.9841 148.449 13.7628 148.449 14.6481C148.449 15.5228 148.241 16.3015 147.825 16.9841C147.409 17.6668 146.854 18.2055 146.161 18.6001C145.468 18.9948 144.7 19.1921 143.857 19.1921ZM143.857 17.2721C144.326 17.2721 144.737 17.1601 145.089 16.9361C145.452 16.7121 145.734 16.4028 145.937 16.0081C146.15 15.6028 146.257 15.1495 146.257 14.6481C146.257 14.1361 146.15 13.6881 145.937 13.3041C145.734 12.9095 145.452 12.6001 145.089 12.3761C144.737 12.1415 144.326 12.0241 143.857 12.0241C143.377 12.0241 142.956 12.1415 142.593 12.3761C142.23 12.6001 141.942 12.9095 141.729 13.3041C141.526 13.6881 141.425 14.1361 141.425 14.6481C141.425 15.1495 141.526 15.6028 141.729 16.0081C141.942 16.4028 142.23 16.7121 142.593 16.9361C142.956 17.1601 143.377 17.2721 143.857 17.2721ZM150.039 22.2001V10.2961H152.007V12.0241L151.815 11.5921C152.113 11.1228 152.519 10.7601 153.031 10.5041C153.543 10.2375 154.135 10.1041 154.807 10.1041C155.628 10.1041 156.369 10.3068 157.031 10.7121C157.692 11.1175 158.215 11.6615 158.599 12.3441C158.993 13.0268 159.191 13.7948 159.191 14.6481C159.191 15.4908 158.999 16.2588 158.615 16.9521C158.231 17.6455 157.708 18.1948 157.047 18.6001C156.385 18.9948 155.633 19.1921 154.791 19.1921C154.161 19.1921 153.58 19.0695 153.047 18.8241C152.524 18.5681 152.108 18.2055 151.799 17.7361L152.135 17.3201V22.2001H150.039ZM154.551 17.2721C155.031 17.2721 155.457 17.1601 155.831 16.9361C156.204 16.7121 156.492 16.4028 156.695 16.0081C156.908 15.6135 157.015 15.1601 157.015 14.6481C157.015 14.1361 156.908 13.6881 156.695 13.3041C156.492 12.9095 156.204 12.6001 155.831 12.3761C155.457 12.1415 155.031 12.0241 154.551 12.0241C154.092 12.0241 153.676 12.1361 153.303 12.3601C152.94 12.5841 152.652 12.8988 152.439 13.3041C152.236 13.6988 152.135 14.1468 152.135 14.6481C152.135 15.1601 152.236 15.6135 152.439 16.0081C152.652 16.4028 152.94 16.7121 153.303 16.9361C153.676 17.1601 154.092 17.2721 154.551 17.2721ZM164.917 19.1921C164.021 19.1921 163.237 18.9895 162.565 18.5841C161.893 18.1788 161.37 17.6295 160.997 16.9361C160.623 16.2428 160.437 15.4748 160.437 14.6321C160.437 13.7575 160.623 12.9841 160.997 12.3121C161.381 11.6295 161.898 11.0908 162.549 10.6961C163.21 10.3015 163.946 10.1041 164.757 10.1041C165.439 10.1041 166.037 10.2161 166.549 10.4401C167.071 10.6641 167.514 10.9735 167.877 11.3681C168.239 11.7628 168.517 12.2161 168.709 12.7281C168.901 13.2295 168.997 13.7735 168.997 14.3601C168.997 14.5095 168.986 14.6641 168.965 14.8241C168.954 14.9841 168.927 15.1228 168.885 15.2401H162.164V13.6401H167.701L166.709 14.3921C166.805 13.9015 166.778 13.4641 166.629 13.0801C166.49 12.6961 166.255 12.3921 165.925 12.1681C165.605 11.9441 165.215 11.8321 164.757 11.8321C164.319 11.8321 163.93 11.9441 163.589 12.1681C163.247 12.3815 162.986 12.7015 162.805 13.1281C162.634 13.5441 162.57 14.0508 162.613 14.6481C162.57 15.1815 162.639 15.6561 162.821 16.0721C163.013 16.4775 163.29 16.7921 163.653 17.0161C164.026 17.2401 164.453 17.3521 164.933 17.3521C165.413 17.3521 165.818 17.2508 166.149 17.0481C166.49 16.8455 166.757 16.5735 166.949 16.2321L168.645 17.0641C168.474 17.4801 168.207 17.8481 167.845 18.1681C167.482 18.4881 167.05 18.7388 166.549 18.9201C166.058 19.1015 165.514 19.1921 164.917 19.1921ZM170.585 19.0001V10.2961H172.553V12.2321L172.393 11.9441C172.596 11.2935 172.911 10.8401 173.337 10.5841C173.775 10.3281 174.297 10.2001 174.905 10.2001H175.417V12.0561H174.665C174.068 12.0561 173.588 12.2428 173.225 12.6161C172.863 12.9788 172.681 13.4908 172.681 14.1521V19.0001H170.585Z" fill="#A8A8AA"/>
</g>
</svg>
