<svg width="40" height="40" viewBox="0 0 40 40" fill="none" xmlns="http://www.w3.org/2000/svg">
<g clip-path="url(#clip0_371_10326)">
<rect width="40" height="40" rx="3" fill="#3383FF"/>
<path d="M35 21.5V18.5C35 18.0856 34.6644 17.75 34.25 17.75H31.6212C31.2781 17.75 30.9819 17.5156 30.8956 17.1838C30.6312 16.1525 30.2225 15.1794 29.6956 14.2869C29.5212 13.9906 29.5662 13.6156 29.8081 13.3737L31.6663 11.5156C31.9587 11.2231 31.9587 10.7487 31.6663 10.4544L29.5456 8.33375C29.2531 8.04125 28.7787 8.04125 28.4844 8.33375L26.6281 10.19C26.3844 10.4337 26.0094 10.4769 25.7131 10.3025C24.8187 9.77375 23.8438 9.365 22.8125 9.09875C22.4825 9.01062 22.25 8.71437 22.25 8.37125V5.75C22.25 5.33562 21.9144 5 21.5 5H18.5C18.0856 5 17.75 5.33562 17.75 5.75V8.37125C17.75 8.71437 17.5175 9.01062 17.1838 9.09687C16.1525 9.36312 15.1775 9.77187 14.2831 10.3006C13.9869 10.475 13.6119 10.4319 13.3681 10.1881L11.5119 8.33187C11.2194 8.03937 10.745 8.03937 10.4506 8.33187L8.33187 10.4544C8.03937 10.7469 8.03937 11.2213 8.33187 11.5156L10.19 13.3737C10.4319 13.6156 10.4769 13.9925 10.3025 14.2869C9.77562 15.1812 9.36687 16.1544 9.1025 17.1838C9.01813 17.5156 8.72188 17.75 8.37875 17.75H5.75C5.33562 17.75 5 18.0856 5 18.5V21.5C5 21.9144 5.33562 22.25 5.75 22.25H8.3825C8.72563 22.25 9.02187 22.4825 9.10812 22.8144C9.37437 23.8419 9.78312 24.8131 10.31 25.7056C10.4844 26.0019 10.4412 26.3769 10.1975 26.6206L8.33187 28.4862C8.03937 28.7787 8.03937 29.2531 8.33187 29.5475L10.4525 31.6681C10.745 31.9606 11.2194 31.9606 11.5138 31.6681L13.3812 29.8006C13.6231 29.5588 14 29.5137 14.2944 29.6881C15.185 30.215 16.1562 30.6219 17.1838 30.8862C17.5156 30.9725 17.75 31.2687 17.75 31.6119V34.25C17.75 34.6644 18.0856 35 18.5 35H21.5C21.9144 35 22.25 34.6644 22.25 34.25V31.61C22.25 31.2669 22.4825 30.9706 22.8162 30.8844C23.8438 30.62 24.8131 30.2131 25.7056 29.6863C26.0019 29.5119 26.3769 29.5569 26.6187 29.7987L28.4862 31.6663C28.7787 31.9587 29.2531 31.9587 29.5475 31.6663L31.6681 29.5456C31.9606 29.2531 31.9606 28.7787 31.6681 28.4844L29.8025 26.6187C29.5587 26.375 29.5156 26 29.69 25.7037C30.2169 24.8112 30.6256 23.84 30.8919 22.8125C30.9781 22.4806 31.2744 22.2481 31.6175 22.2481H34.25C34.6644 22.25 35 21.9144 35 21.5ZM20.7331 26.7012C16.4375 27.1569 12.8337 23.5531 13.2894 19.2575C13.6212 16.1281 16.1375 13.6119 19.2669 13.28C23.5625 12.8244 27.1663 16.4281 26.7106 20.7237C26.3787 23.8531 23.8625 26.3694 20.7331 26.7012Z" fill="white"/>
<circle cx="20" cy="20" r="8" fill="#3383FF"/>
</g>
<defs>
<clipPath id="clip0_371_10326">
<rect width="40" height="40" fill="white"/>
</clipPath>
</defs>
</svg>
