<svg width="101" height="101" viewBox="0 0 101 101" fill="none" xmlns="http://www.w3.org/2000/svg">
<g filter="url(#filter0_b_264_324)">
<path d="M8 13H40L47.7576 17H72V89H13C10.2386 89 8 86.7614 8 84V13Z" fill="white"/>
<path d="M8 13H40L47.7576 17H72V89H13C10.2386 89 8 86.7614 8 84V13Z" stroke="#8DAAFF" stroke-miterlimit="10" stroke-linecap="round" stroke-linejoin="round"/>
</g>
<path fill-rule="evenodd" clip-rule="evenodd" d="M18 27C18 26.4477 18.4477 26 19 26H62C62.5523 26 63 26.4477 63 27V31C63 31.5523 62.5523 32 62 32H19C18.4477 32 18 31.5523 18 31V27Z" fill="#DEEFFF"/>
<path fill-rule="evenodd" clip-rule="evenodd" d="M18 39C18 38.4477 18.4477 38 19 38H52C52.5523 38 53 38.4477 53 39V43C53 43.5523 52.5523 44 52 44H19C18.4477 44 18 43.5523 18 43V39Z" fill="#DEEFFF"/>
<g filter="url(#filter1_b_264_324)">
<path d="M8 12.5C8 10.0147 10.0147 8 12.5 8L69 8V17H12.5C10.0147 17 8 14.9853 8 12.5V12.5Z" fill="#DEEFFF"/>
<path d="M8 12.5C8 10.0147 10.0147 8 12.5 8L69 8V17H12.5C10.0147 17 8 14.9853 8 12.5V12.5Z" stroke="#8DAAFF" stroke-miterlimit="10" stroke-linecap="round" stroke-linejoin="round"/>
</g>
<path d="M87.1619 71.9999C87.1619 80.3731 80.3741 87.1609 72.0009 87.1609C63.6277 87.1609 56.8398 80.3731 56.8398 71.9999C56.8398 63.6267 63.6277 56.8389 72.0009 56.8389C80.3741 56.8389 87.1619 63.6267 87.1619 71.9999Z" fill="white" stroke="#8DAAFF"/>
<path d="M100 74.8V69.2C100 68.4265 99.3735 67.8 98.6 67.8H93.693C93.0525 67.8 92.4995 67.3625 92.3385 66.743C91.845 64.818 91.082 63.0015 90.0985 61.3355C89.773 60.7825 89.857 60.0825 90.3085 59.631L93.777 56.1625C94.323 55.6165 94.323 54.731 93.777 54.1815L89.8185 50.223C89.2725 49.677 88.387 49.677 87.8375 50.223L84.3725 53.688C83.9175 54.143 83.2175 54.2235 82.6645 53.898C80.995 52.911 79.175 52.148 77.25 51.651C76.634 51.4865 76.2 50.9335 76.2 50.293V45.4C76.2 44.6265 75.5735 44 74.8 44H69.2C68.4265 44 67.8 44.6265 67.8 45.4V50.293C67.8 50.9335 67.366 51.4865 66.743 51.6475C64.818 52.1445 62.998 52.9075 61.3285 53.8945C60.7755 54.22 60.0755 54.1395 59.6205 53.6845L56.1555 50.2195C55.6095 49.6735 54.724 49.6735 54.1745 50.2195L50.2195 54.1815C49.6735 54.7275 49.6735 55.613 50.2195 56.1625L53.688 59.631C54.1395 60.0825 54.2235 60.786 53.898 61.3355C52.9145 63.005 52.1515 64.8215 51.658 66.743C51.5005 67.3625 50.9475 67.8 50.307 67.8H45.4C44.6265 67.8 44 68.4265 44 69.2V74.8C44 75.5735 44.6265 76.2 45.4 76.2H50.314C50.9545 76.2 51.5075 76.634 51.6685 77.2535C52.1655 79.1715 52.9285 80.9845 53.912 82.6505C54.2375 83.2035 54.157 83.9035 53.702 84.3585L50.2195 87.841C49.6735 88.387 49.6735 89.2725 50.2195 89.822L54.178 93.7805C54.724 94.3265 55.6095 94.3265 56.159 93.7805L59.645 90.2945C60.0965 89.843 60.8 89.759 61.3495 90.0845C63.012 91.068 64.825 91.8275 66.743 92.321C67.3625 92.482 67.8 93.035 67.8 93.6755V98.6C67.8 99.3735 68.4265 100 69.2 100H74.8C75.5735 100 76.2 99.3735 76.2 98.6V93.672C76.2 93.0315 76.634 92.4785 77.257 92.3175C79.175 91.824 80.9845 91.0645 82.6505 90.081C83.2035 89.7555 83.9035 89.8395 84.355 90.291L87.841 93.777C88.387 94.323 89.2725 94.323 89.822 93.777L93.7805 89.8185C94.3265 89.2725 94.3265 88.387 93.7805 87.8375L90.298 84.355C89.843 83.9 89.7625 83.2 90.088 82.647C91.0715 80.981 91.8345 79.168 92.3315 77.25C92.4925 76.6305 93.0455 76.1965 93.686 76.1965H98.6C99.3735 76.2 100 75.5735 100 74.8ZM73.3685 84.509C65.35 85.3595 58.623 78.6325 59.4735 70.614C60.093 64.7725 64.79 60.0755 70.6315 59.456C78.65 58.6055 85.377 65.3325 84.5265 73.351C83.907 79.1925 79.21 83.8895 73.3685 84.509Z" fill="#DEEFFF" stroke="#8DAAFF"/>
<path d="M76.4633 71.9342C76.8943 71.2688 76.4167 70.3905 75.624 70.3905H74.7348C74.1547 70.3905 73.6963 69.8985 73.7373 69.3198L74.1442 63.5799C74.2173 62.549 72.8694 62.0981 72.3075 62.9654L66.8538 71.3822C66.4227 72.0476 66.9002 72.926 67.693 72.926H68.5842C69.1643 72.926 69.6227 73.418 69.5817 73.9967L69.1749 79.7357C69.1018 80.7666 70.4498 81.2175 71.0117 80.3501L76.4633 71.9342Z" fill="#0064FF"/>
<defs>
<filter id="filter0_b_264_324" x="-12.5" y="-7.5" width="105" height="117" filterUnits="userSpaceOnUse" color-interpolation-filters="sRGB">
<feFlood flood-opacity="0" result="BackgroundImageFix"/>
<feGaussianBlur in="BackgroundImageFix" stdDeviation="10"/>
<feComposite in2="SourceAlpha" operator="in" result="effect1_backgroundBlur_264_324"/>
<feBlend mode="normal" in="SourceGraphic" in2="effect1_backgroundBlur_264_324" result="shape"/>
</filter>
<filter id="filter1_b_264_324" x="-12.5" y="-12.5" width="102" height="50" filterUnits="userSpaceOnUse" color-interpolation-filters="sRGB">
<feFlood flood-opacity="0" result="BackgroundImageFix"/>
<feGaussianBlur in="BackgroundImageFix" stdDeviation="10"/>
<feComposite in2="SourceAlpha" operator="in" result="effect1_backgroundBlur_264_324"/>
<feBlend mode="normal" in="SourceGraphic" in2="effect1_backgroundBlur_264_324" result="shape"/>
</filter>
</defs>
</svg>
