<svg width="101" height="101" viewBox="0 0 101 101" fill="none" xmlns="http://www.w3.org/2000/svg">
<path d="M87.5585 49.9739C87.5585 70.9757 70.5331 88.001 49.5313 88.001C28.5295 88.001 11.5042 70.9757 11.5042 49.9739C11.5042 28.9721 28.5295 11.9468 49.5313 11.9468C70.5331 11.9468 87.5585 28.9721 87.5585 49.9739Z" fill="white" stroke="#8DAAFF" stroke-width="1.00839"/>
<path d="M78.1804 49.9743C78.1804 65.7968 65.3538 78.6234 49.5313 78.6234C33.7088 78.6234 20.8821 65.7968 20.8821 49.9743C20.8821 34.1519 33.7088 21.3252 49.5313 21.3252C65.3538 21.3252 78.1804 34.1519 78.1804 49.9743Z" fill="#DEEFFF" stroke="#8DAAFF" stroke-width="1.00839"/>
<path d="M68.2928 49.9739C68.2928 60.3356 59.893 68.7353 49.5313 68.7353C39.1696 68.7353 30.7698 60.3356 30.7698 49.9739C30.7698 39.6122 39.1696 31.2124 49.5313 31.2124C59.893 31.2124 68.2928 39.6122 68.2928 49.9739Z" fill="white" stroke="#8DAAFF" stroke-width="1.00839"/>
<path d="M57.9978 49.9742C57.9978 54.6498 54.2075 58.4402 49.5318 58.4402C44.8561 58.4402 41.0657 54.6498 41.0657 49.9742C41.0657 45.2985 44.8561 41.5081 49.5318 41.5081C54.2075 41.5081 57.9978 45.2985 57.9978 49.9742Z" fill="#DEEFFF" stroke="#8DAAFF" stroke-width="1.00839"/>
<path d="M76.144 12.0098L76.3109 21.7366C76.323 22.4416 77.1776 22.7843 77.6735 22.283L87.3982 12.4516C87.5491 12.2991 87.632 12.0922 87.6283 11.8778L87.4576 1.92236C87.4454 1.21289 86.5815 0.872304 86.0885 1.38258L76.3676 11.4427C76.2208 11.5946 76.1404 11.7986 76.144 12.0098Z" fill="#DEEFFF" stroke="#8DAAFF" stroke-width="1.00839" stroke-linejoin="round"/>
<path d="M77.9734 23.8135L88.1335 24.9691C88.3761 24.9967 88.618 24.9115 88.7897 24.7379L98.6372 14.7824C99.1079 14.3065 98.8173 13.4975 98.1514 13.4299L87.8826 12.387C87.643 12.3627 87.4053 12.448 87.2359 12.6192L77.4973 22.462C77.0296 22.9346 77.3128 23.7384 77.9734 23.8135Z" fill="#DEEFFF" stroke="#8DAAFF" stroke-width="1.00839" stroke-linejoin="round"/>
<path fill-rule="evenodd" clip-rule="evenodd" d="M88.9761 11.3087C89.4438 11.7764 89.4425 12.5349 88.9734 13.001L52.012 49.7229C51.8636 49.8703 51.6791 49.9762 51.4769 50.03L49.9963 50.4235C49.7087 50.5 49.4419 50.2454 49.5048 49.9545L49.8367 48.4196C49.8855 48.194 49.9986 47.9873 50.1624 47.8246L87.1049 11.1215C87.5719 10.6576 88.3262 10.6588 88.7917 11.1243L88.9761 11.3087Z" fill="#8DAAFF" stroke="#8DAAFF" stroke-width="1.00839"/>
<path d="M79 100C90.598 100 100 90.598 100 79C100 67.402 90.598 58 79 58C67.402 58 58 67.402 58 79C58 90.598 67.402 100 79 100Z" fill="#DEEFFF" stroke="#8DAAFF"/>
<path d="M86.3148 77.9945C86.7771 77.3677 86.3209 76.4907 85.5326 76.4907H82.4607C81.8973 76.4907 81.4536 76.0192 81.4981 75.4679L82.3408 65.0253C82.4179 64.0705 81.1683 63.6188 80.596 64.3945L70.1853 78.5062C69.7229 79.133 70.1791 80.0101 70.9674 80.0101H74.0425C74.6059 80.0101 75.0497 80.4816 75.0052 81.0329L74.1625 91.4747C74.0854 92.4295 75.3351 92.8813 75.9074 92.1054L86.3148 77.9945Z" fill="#0064FF"/>
</svg>
